<svg width="50" height="52" viewBox="0 0 50 52" fill="none" xmlns="http://www.w3.org/2000/svg">
<g clip-path="url(#clip0_260_6337)">
<path d="M45.0127 9.52266C47.1896 11.1308 49.2462 14.5884 49.5379 17.2296L49.5405 17.253C49.5675 17.4941 50 21.4221 50 25.9724C50 30.5613 49.5703 34.4288 49.5407 34.6895L49.5375 34.7184C49.2437 37.368 47.2323 40.8378 44.991 42.4382L44.9878 42.4405C44.9336 42.479 41.6134 44.8356 37.5 47.1924C33.5744 49.4106 30.0505 50.9546 29.5993 51.1501C29.5662 51.1645 29.5345 51.1786 29.5015 51.1933C28.2959 51.7311 26.648 52 25 52C23.3977 52 21.7387 51.7273 20.4746 51.1821L20.4265 51.1614C20.1062 51.0252 16.4607 49.4615 12.5 47.1924C8.55042 44.9295 5.33219 42.6667 5.03407 42.456C5.01746 42.4442 5.00356 42.4342 4.98721 42.4221C2.81044 40.814 0.753809 37.3563 0.462101 34.7151L0.459507 34.6918C0.432466 34.4506 0 30.5226 0 25.9724C0 21.3835 0.429666 17.516 0.459231 17.2552L0.462461 17.2264C0.755401 14.5845 2.75583 11.1273 4.9892 9.52079C5.0042 9.50999 5.01678 9.50113 5.03197 9.49065C5.31682 9.2937 8.541 7.07588 12.5 4.80765C16.4256 2.5894 19.9495 1.04536 20.4007 0.849899C20.4338 0.835526 20.4655 0.821413 20.4985 0.806681C21.7041 0.268894 23.352 0 25 0C26.6022 0 28.2612 0.272651 29.5254 0.817952L29.5735 0.838581C29.8938 0.974829 33.5393 2.53848 37.5 4.80765C41.4496 7.01784 44.6678 9.27818 44.9659 9.48878C44.9825 9.50056 44.9964 9.51056 45.0127 9.52266Z" fill="#3FC4EE"/>
<path d="M15.8335 23.2497V20.958C15.8335 18.6755 17.676 16.833 19.9585 16.833H22.2502" stroke="white" stroke-width="1.375" stroke-linecap="round" stroke-linejoin="round"/>
<path d="M27.75 16.833H30.0417C32.3242 16.833 34.1667 18.6755 34.1667 20.958V23.2497" stroke="white" stroke-width="1.375" stroke-linecap="round" stroke-linejoin="round"/>
<path d="M34.1665 29.667V31.042C34.1665 33.3245 32.324 35.167 30.0415 35.167H28.6665" stroke="white" stroke-width="1.375" stroke-linecap="round" stroke-linejoin="round"/>
<path d="M22.2499 35.1667H19.9583C17.6758 35.1667 15.8333 33.3242 15.8333 31.0417V28.75" stroke="white" stroke-width="1.375" stroke-linecap="round" stroke-linejoin="round"/>
<path d="M29.5832 23.708V28.2913C29.5832 30.1247 28.6665 31.0413 26.8332 31.0413H23.1665C21.3332 31.0413 20.4165 30.1247 20.4165 28.2913V23.708C20.4165 21.8747 21.3332 20.958 23.1665 20.958H26.8332C28.6665 20.958 29.5832 21.8747 29.5832 23.708Z" stroke="white" stroke-width="1.375" stroke-linecap="round" stroke-linejoin="round"/>
<path d="M31.4166 26H18.5833" stroke="white" stroke-width="1.375" stroke-linecap="round" stroke-linejoin="round"/>
</g>
<defs>
<clipPath id="clip0_260_6337">
<rect width="50" height="52" fill="white"/>
</clipPath>
</defs>
</svg>
