<svg width="80" height="86" viewBox="0 0 80 86" fill="none" xmlns="http://www.w3.org/2000/svg">
<g clip-path="url(#clip0_46_1165)">
<path d="M72.0563 15.7764C75.5211 18.444 78.7867 24.1265 79.2587 28.4774L79.2663 28.5476C79.3219 29.063 80 35.5043 80 42.9543C80 50.4445 79.3304 56.7728 79.2675 57.3512L79.2576 57.4416C78.7791 61.8192 75.5677 67.5401 71.9893 70.1834L71.9776 70.1921C71.8128 70.3129 66.5313 74.1809 60 78.0489C53.9009 81.6113 48.4077 84.1224 47.4339 84.5607C47.332 84.6065 47.2309 84.6533 47.1292 84.6992C45.2071 85.5664 42.6036 86 40 86C37.4521 86 34.8145 85.5546 32.7967 84.6638L32.6421 84.5954C31.9197 84.2765 26.2013 81.7214 20 78.0489C13.8195 74.3887 8.75816 70.7286 8.09264 70.2435C8.04157 70.2062 7.99384 70.1708 7.94376 70.1322C4.47889 67.4646 1.21335 61.782 0.741264 57.4312L0.733715 57.3611C0.678137 56.8456 0 50.4043 0 42.9543C0 35.464 0.66964 29.1357 0.732593 28.5574L0.742389 28.4671C1.21823 24.1143 4.39591 18.4334 7.94988 15.7704C7.99583 15.736 8.04029 15.7037 8.08705 15.6704C8.72929 15.2126 13.8017 11.6217 20 7.95112C26.0991 4.38867 31.5923 1.87765 32.5661 1.43926C32.668 1.39341 32.7691 1.34668 32.8708 1.30074C34.7929 0.433581 37.3964 0 40 0C42.5477 0 45.1855 0.445402 47.2033 1.33621L47.3579 1.40461C48.0803 1.72356 53.7987 4.27865 60 7.95112C66.1805 11.5262 71.2419 15.1805 71.9073 15.6652C71.9584 15.7024 72.0061 15.7379 72.0563 15.7764Z" fill="#2DC36A"/>
<path d="M55 34V37.63C55 40 53.5 41.5 51.13 41.5H46V31.015C46 29.35 47.365 28 49.03 28C50.665 28.015 52.165 28.675 53.245 29.755C54.325 30.85 55 32.35 55 34Z" stroke="white" stroke-width="2.25" stroke-miterlimit="10" stroke-linecap="round" stroke-linejoin="round"/>
<path d="M25 35.5V56.5C25 57.745 26.41 58.45 27.4 57.7L29.965 55.78C30.565 55.33 31.405 55.39 31.945 55.93L34.435 58.435C35.02 59.02 35.98 59.02 36.565 58.435L39.085 55.915C39.61 55.39 40.45 55.33 41.035 55.78L43.6 57.7C44.59 58.435 46 57.73 46 56.5V31C46 29.35 47.35 28 49 28H32.5H31C26.5 28 25 30.685 25 34V35.5Z" stroke="white" stroke-width="2.25" stroke-miterlimit="10" stroke-linecap="round" stroke-linejoin="round"/>
<path d="M35.5 44.515H40" stroke="white" stroke-width="2.25" stroke-linecap="round" stroke-linejoin="round"/>
<path d="M35.5 38.515H40" stroke="white" stroke-width="2.25" stroke-linecap="round" stroke-linejoin="round"/>
<path d="M30.9932 44.5H31.0066" stroke="white" stroke-width="3" stroke-linecap="round" stroke-linejoin="round"/>
<path d="M30.9932 38.5H31.0066" stroke="white" stroke-width="3" stroke-linecap="round" stroke-linejoin="round"/>
</g>
<defs>
<clipPath id="clip0_46_1165">
<rect width="80" height="86" fill="white"/>
</clipPath>
</defs>
</svg>
