<svg width="80" height="86" viewBox="0 0 80 86" fill="none" xmlns="http://www.w3.org/2000/svg">
<g clip-path="url(#clip0_235_127)">
<path d="M72.0204 15.749C75.5033 18.4086 78.7939 24.127 79.2607 28.4952L79.2648 28.5337C79.308 28.9326 80 35.4289 80 42.9543C80 50.5437 79.3125 56.9399 79.2652 57.3711L79.26 57.4188C78.79 61.8009 75.5717 67.5394 71.9856 70.1862L71.9805 70.19C71.8937 70.2537 66.5815 74.1512 60 78.0489C53.7191 81.7175 48.0808 84.2711 47.3589 84.5944C47.3059 84.6182 47.2552 84.6415 47.2024 84.6659C45.2735 85.5554 42.6368 86 40 86C37.4364 86 34.782 85.549 32.7593 84.6472L32.6824 84.6131C32.1699 84.3878 26.3371 81.8017 20 78.0489C13.6807 74.3066 8.53149 70.5642 8.05451 70.2156C8.02793 70.1962 8.00569 70.1796 7.97955 70.1596C4.49671 67.5001 1.20609 61.7816 0.739361 57.4135L0.735211 57.3749C0.691945 56.9761 0 50.4797 0 42.9543C0 35.3649 0.687465 28.9687 0.734769 28.5375L0.739937 28.4898C1.20864 24.1206 4.40932 18.4029 7.98272 15.7459C8.00672 15.7281 8.02684 15.7134 8.05116 15.6961C8.50691 15.3704 13.6656 11.7024 20 7.95112C26.2809 4.28246 31.9192 1.72887 32.6411 1.4056C32.6941 1.38183 32.7448 1.35849 32.7976 1.33413C34.7265 0.444709 37.3632 0 40 0C42.5636 0 45.218 0.450924 47.2407 1.35277L47.3176 1.38688C47.8301 1.61222 53.6629 4.19825 60 7.95112C66.3193 11.6064 71.4685 15.3447 71.9455 15.693C71.972 15.7125 71.9943 15.729 72.0204 15.749Z" fill="#3FEECF"/>
<path d="M36.25 45.6253C36.25 47.0803 37.375 48.2503 38.755 48.2503H41.575C42.775 48.2503 43.75 47.2303 43.75 45.9553C43.75 44.5903 43.15 44.0953 42.265 43.7803L37.75 42.2053C36.865 41.8903 36.265 41.4103 36.265 40.0303C36.265 38.7703 37.24 37.7354 38.44 37.7354H41.26C42.64 37.7354 43.765 38.9054 43.765 40.3604" stroke="white" stroke-width="2.25" stroke-linecap="round" stroke-linejoin="round"/>
<path d="M40 36.25V49.75" stroke="white" stroke-width="2.25" stroke-linecap="round" stroke-linejoin="round"/>
<path d="M55 43C55 51.28 48.28 58 40 58C31.72 58 25 51.28 25 43C25 34.72 31.72 28 40 28" stroke="white" stroke-width="2.25" stroke-linecap="round" stroke-linejoin="round"/>
<path d="M55 34V28H49" stroke="white" stroke-width="2.25" stroke-linecap="round" stroke-linejoin="round"/>
<path d="M47.5 35.5L55 28" stroke="white" stroke-width="2.25" stroke-linecap="round" stroke-linejoin="round"/>
</g>
<defs>
<clipPath id="clip0_235_127">
<rect width="80" height="86" fill="white"/>
</clipPath>
</defs>
</svg>
