<svg width="24" height="24" viewBox="0 0 24 24" fill="none" xmlns="http://www.w3.org/2000/svg">
<path fill-rule="evenodd" clip-rule="evenodd" d="M24 12C24 18.6274 18.6274 24 12 24C5.37258 24 0 18.6274 0 12C0 5.37258 5.37258 0 12 0C18.6274 0 24 5.37258 24 12ZM9.2343 10.1031C8.99444 9.86319 8.99444 9.47431 9.2343 9.23445C9.47416 8.99459 9.86305 8.99459 10.1029 9.23445L12.2749 11.4064L14.4469 9.2343C14.6868 8.99444 15.0757 8.99444 15.3156 9.2343C15.5554 9.47416 15.5554 9.86305 15.3156 10.1029L13.1435 12.275L15.3145 14.4461C15.5544 14.6859 15.5544 15.0748 15.3145 15.3147C15.0747 15.5545 14.6858 15.5545 14.4459 15.3147L12.2749 13.1436L10.1039 15.3145C9.86408 15.5544 9.47519 15.5544 9.23533 15.3145C8.99548 15.0747 8.99548 14.6858 9.23533 14.4459L11.4062 12.275L9.2343 10.1031Z" fill="#0065B1"/>
</svg>
