<svg width="35" height="33" viewBox="0 0 35 33" fill="none" xmlns="http://www.w3.org/2000/svg">
<path d="M12.375 32H22.125C30.25 32 33.5 28.9 33.5 21.15V11.85C33.5 4.1 30.25 1 22.125 1H12.375C4.25 1 1 4.1 1 11.85V21.15C1 28.9 4.25 32 12.375 32Z" stroke="#0065B1" stroke-width="1.8" stroke-linecap="round" stroke-linejoin="round"/>
<path d="M25.7531 16.2264H21.1956C19.9882 16.2264 19.1719 15.3077 19.1719 14.2019V11.667C19.1719 10.5612 19.9882 9.64258 21.1956 9.64258H23.7294C24.8348 9.64258 25.7531 10.5612 25.7531 11.667V16.2264Z" stroke="#0065B1" stroke-width="1.8" stroke-linecap="round" stroke-linejoin="round"/>
<path d="M25.7525 16.2256C25.7525 20.972 24.8682 21.7716 22.1982 23.3537" stroke="#0065B1" stroke-width="1.8" stroke-linecap="round" stroke-linejoin="round"/>
<path d="M15.3117 16.2264H10.7542C9.54675 16.2264 8.73047 15.3077 8.73047 14.2019V11.667C8.73047 10.5612 9.54675 9.64258 10.7542 9.64258H13.288C14.3934 9.64258 15.3117 10.5612 15.3117 11.667V16.2264Z" stroke="#0065B1" stroke-width="1.8" stroke-linecap="round" stroke-linejoin="round"/>
<path d="M15.312 16.2256C15.312 20.972 14.4277 21.7716 11.7578 23.3537" stroke="#0065B1" stroke-width="1.8" stroke-linecap="round" stroke-linejoin="round"/>
</svg>
