<svg width="271" height="271" viewBox="0 0 271 271" fill="none" xmlns="http://www.w3.org/2000/svg">
<g clip-path="url(#clip0_239_2)">
<mask id="mask0_239_2" style="mask-type:luminance" maskUnits="userSpaceOnUse" x="-5" y="0" width="272" height="271">
<path d="M-4.06543 0H266.935V271H-4.06543V0Z" fill="white"/>
</mask>
<g mask="url(#mask0_239_2)">
<path d="M136.008 239.039C170.315 239.039 198.169 243.086 198.169 248.069C198.169 253.053 170.315 257.099 136.008 257.099C101.702 257.099 73.8477 253.053 73.8477 248.069C73.8477 243.086 101.702 239.039 136.008 239.039Z" fill="url(#paint0_radial_239_2)" fill-opacity="0.5"/>
<path d="M235.457 123.282C223.031 113.831 207.152 112.737 196.956 125.829C186.759 138.921 193.483 156.073 206.114 162.894C224.611 172.882 251.319 177.273 257.719 167.505C264.12 157.736 248.087 132.887 235.457 123.282Z" fill="url(#paint1_linear_239_2)"/>
<path d="M235.457 123.282C223.031 113.831 207.152 112.737 196.956 125.829C186.759 138.921 193.483 156.073 206.114 162.894C224.611 172.882 251.319 177.273 257.719 167.505C264.12 157.736 248.087 132.887 235.457 123.282Z" fill="url(#paint2_radial_239_2)"/>
<path d="M75.7598 148.739V84.1087C75.7598 48.7821 104.441 20.1012 139.767 20.1012C175.094 20.1012 203.775 48.7821 203.775 84.1087V151.794C203.775 213.059 75.7598 197.284 75.7598 148.739Z" fill="url(#paint3_radial_239_2)"/>
<path d="M209.169 81.5433V146.985C209.169 185.288 178.072 216.384 139.769 216.384C101.466 216.384 70.3691 185.288 70.3691 146.985V78.2314C70.3691 73.3537 72.4724 70.5942 77.4541 72.1176C84.0817 74.1443 86.8707 76.311 91.3696 84.8024C95.5301 92.656 110.363 121.041 113.864 126.682C120.848 137.937 131.935 151.513 162.241 151.513C184.998 151.513 204.256 133.181 204.256 113.568V74.1443C204.256 71.3886 209.169 75.0451 209.169 81.5433Z" fill="url(#paint4_linear_239_2)"/>
<path d="M150.336 175.267C150.141 177.288 149.855 185.734 149.76 187.339C149.664 188.944 150.812 190.186 152.142 191.125C153.473 192.065 158.752 195.156 160.629 195.894C162.507 196.632 164.516 196.48 166.13 195.894C167.743 195.308 174.035 191.21 175.202 190.11C176.369 189.009 177.476 186.926 177.822 184.915C178.185 182.799 178.587 178.092 178.628 176.81C178.7 174.535 178.502 173.791 177.109 172.39C175.383 170.654 171.09 167.733 169.204 166.617C167.381 165.537 164.486 165.386 162.089 166.664C160.232 167.655 154.517 170.651 152.9 171.685C151.283 172.719 150.474 173.846 150.336 175.267Z" fill="url(#paint5_radial_239_2)"/>
<path d="M153.794 175.801C153.678 177.005 153.508 182.036 153.451 182.992C153.393 183.948 154.078 184.688 154.87 185.248C155.663 185.807 158.808 187.649 159.926 188.088C161.044 188.528 162.242 188.437 163.203 188.088C164.164 187.739 167.912 185.298 168.607 184.643C169.302 183.987 169.962 182.746 170.168 181.548C170.384 180.288 170.624 177.483 170.648 176.72C170.691 175.364 170.573 174.921 169.743 174.087C168.715 173.053 166.158 171.312 165.034 170.647C163.948 170.004 162.223 169.914 160.796 170.676C159.689 171.266 156.285 173.051 155.322 173.667C154.358 174.283 153.876 174.954 153.794 175.801Z" fill="white"/>
<path d="M150.336 175.267C150.141 177.288 149.855 185.734 149.76 187.339C150.084 183.708 150.483 176.911 150.646 175.356C150.836 173.542 152.131 172.636 153.096 172.018C155.381 170.556 160.396 167.979 162.192 167.022C164.022 166.045 167.051 165.747 168.987 166.962C171.232 168.371 174.674 170.602 176.831 172.594C178.248 173.901 178.434 174.597 178.628 176.81C178.701 174.535 178.502 173.791 177.109 172.39C175.383 170.654 171.091 167.733 169.204 166.617C167.381 165.537 164.486 165.386 162.09 166.664C160.233 167.655 154.518 170.651 152.9 171.685C151.283 172.719 150.474 173.846 150.336 175.267Z" fill="#0042C3"/>
<path d="M178.628 176.812C178.627 178.61 178.525 180.812 178.092 184.911C177.933 186.42 177.055 189.213 175.35 190.509C172.642 192.567 169.139 195.042 166.327 196.24C163.993 197.234 161.702 196.802 160.513 196.245C157.27 194.725 153.941 192.632 151.819 191.327C149.601 189.963 149.639 188.698 149.76 187.34C149.664 188.945 150.812 190.187 152.142 191.126C153.473 192.066 158.752 195.158 160.63 195.895C162.507 196.633 164.517 196.481 166.13 195.895C167.743 195.309 174.035 191.212 175.202 190.111C176.369 189.011 177.476 186.928 177.822 184.916C178.185 182.8 178.588 178.093 178.628 176.812Z" fill="#98B5FF"/>
<path d="M70.3672 82.787V78.2308C70.3672 73.3532 72.4708 70.5937 77.4525 72.1174C84.0798 74.1438 86.8691 76.3105 91.368 84.8022C95.5285 92.6558 110.361 121.04 113.862 126.682C120.846 137.936 131.933 151.513 162.239 151.513C184.995 151.513 204.254 133.18 204.254 113.568V74.1438C204.254 71.3884 209.167 75.0445 209.167 81.5428V113.197C209.167 135.276 192.282 156.48 162.943 156.48C129.464 156.48 116.105 143.298 107.971 127.743C101.407 115.187 88.2857 90.4966 84.9324 84.3378C80.9731 77.0655 76.4647 77.0659 73.464 76.3047C70.5474 75.5652 70.3672 80.0868 70.3672 82.787Z" fill="url(#paint6_linear_239_2)"/>
<path d="M79.5983 107.525C91.213 107.525 100.628 124.691 100.628 145.867C100.628 167.043 91.213 184.21 79.5983 184.21C67.9836 184.21 58.5684 167.043 58.5684 145.867C58.5684 124.691 67.9836 107.525 79.5983 107.525Z" fill="url(#paint7_radial_239_2)"/>
<path d="M183.72 67.7304C190.201 67.7304 195.456 75.42 195.456 84.9054C195.456 94.3907 190.201 102.08 183.72 102.08C177.239 102.08 171.984 94.3907 171.984 84.9054C171.984 75.42 177.239 67.7304 183.72 67.7304Z" fill="white"/>
<g opacity="0.999997">
<path d="M182.599 58.0325C192.703 58.0325 200.894 70.0649 200.894 84.9072C200.894 99.7495 192.703 111.782 182.599 111.782C172.496 111.782 164.305 99.7495 164.305 84.9072C164.305 70.0649 172.496 58.0325 182.599 58.0325Z" fill="url(#paint8_radial_239_2)"/>
</g>
<path d="M41.7702 123.282C54.1965 113.831 70.0751 112.737 80.2718 125.829C90.4685 138.921 83.7447 156.073 71.1134 162.894C52.6163 172.882 25.9089 177.274 19.5085 167.505C13.1079 157.736 29.1409 132.888 41.7702 123.282Z" fill="url(#paint9_linear_239_2)"/>
<path d="M41.7702 123.282C54.1965 113.831 70.0751 112.737 80.2718 125.829C90.4685 138.921 83.7447 156.073 71.1134 162.894C52.6163 172.882 25.9089 177.274 19.5085 167.505C13.1079 157.736 29.1409 132.888 41.7702 123.282Z" fill="url(#paint10_radial_239_2)"/>
<path d="M143.048 120.519C146.059 118.468 149.188 116.959 152.361 116.029C154.698 115.344 157.046 114.99 159.321 114.941C160.286 114.92 161.24 114.966 162.17 115.082C163.627 115.265 165.031 115.576 166.359 116.03C169.937 117.253 172.968 119.228 175.223 121.831C175.711 122.291 175.734 123.059 175.275 123.547C174.815 124.035 174.047 124.058 173.559 123.598C171.259 121.834 168.408 120.841 165.27 120.314C164.311 120.153 163.33 120.063 162.322 119.986C161.352 119.913 160.363 119.885 159.354 119.877C156.936 119.857 154.421 120.051 151.851 120.613C149.412 121.147 146.933 121.873 144.484 123.025C143.792 123.421 142.91 123.181 142.513 122.49C142.117 121.798 142.357 120.916 143.048 120.519Z" fill="white"/>
<path d="M134.941 67.7304C141.422 67.7304 146.676 75.42 146.676 84.9054C146.676 94.3907 141.422 102.08 134.941 102.08C128.459 102.08 123.205 94.3907 123.205 84.9054C123.205 75.42 128.459 67.7304 134.941 67.7304Z" fill="white"/>
<g opacity="0.999997">
<path d="M134.939 58.0325C147.028 58.0325 156.827 70.0649 156.827 84.9072C156.827 99.7495 147.028 111.782 134.939 111.782C122.85 111.782 113.051 99.7495 113.051 84.9072C113.051 70.0649 122.85 58.0325 134.939 58.0325Z" fill="url(#paint11_radial_239_2)"/>
</g>
</g>
</g>
<defs>
<radialGradient id="paint0_radial_239_2" cx="0" cy="0" r="1" gradientUnits="userSpaceOnUse" gradientTransform="translate(136.008 248.069) scale(50.9749 8.34132)">
<stop stop-color="#0065B1"/>
<stop offset="0.14" stop-color="#0065B1" stop-opacity="0.855"/>
<stop offset="0.28" stop-color="#0065B1" stop-opacity="0.71"/>
<stop offset="0.64" stop-color="#0065B1" stop-opacity="0.355"/>
<stop offset="1" stop-color="#0065B1" stop-opacity="0"/>
</radialGradient>
<linearGradient id="paint1_linear_239_2" x1="237.461" y1="130.756" x2="212.281" y2="169.825" gradientUnits="userSpaceOnUse">
<stop stop-color="#ACC5FD"/>
<stop offset="0.5" stop-color="#7295DB"/>
<stop offset="1" stop-color="#3966B8"/>
</linearGradient>
<radialGradient id="paint2_radial_239_2" cx="0" cy="0" r="1" gradientUnits="userSpaceOnUse" gradientTransform="translate(223.572 122.288) scale(39.3981 39.3981)">
<stop stop-color="#E2E9FA"/>
<stop offset="0.17" stop-color="#DCE6FC" stop-opacity="0.835"/>
<stop offset="0.33" stop-color="#D6E3FF" stop-opacity="0.67"/>
<stop offset="0.67" stop-color="#B0C6F4" stop-opacity="0.335"/>
<stop offset="1" stop-color="#8BA9E8" stop-opacity="0"/>
</radialGradient>
<radialGradient id="paint3_radial_239_2" cx="0" cy="0" r="1" gradientUnits="userSpaceOnUse" gradientTransform="translate(115.85 56.9121) scale(111.098 111.098)">
<stop stop-color="#0060D3"/>
<stop offset="0.14" stop-color="#0055C4"/>
<stop offset="0.27" stop-color="#004BB4"/>
<stop offset="0.63" stop-color="#003695"/>
<stop offset="1" stop-color="#002176"/>
</radialGradient>
<linearGradient id="paint4_linear_239_2" x1="144.306" y1="220.866" x2="137.869" y2="76.8977" gradientUnits="userSpaceOnUse">
<stop stop-color="#2667C5"/>
<stop offset="0.5" stop-color="#749DDE"/>
<stop offset="1" stop-color="#C2D2F6"/>
</linearGradient>
<radialGradient id="paint5_radial_239_2" cx="0" cy="0" r="1" gradientUnits="userSpaceOnUse" gradientTransform="translate(160.226 180.216) scale(16.2073 16.2073)">
<stop stop-color="#D7E2FF"/>
<stop offset="0.5" stop-color="#6C91DF"/>
<stop offset="1" stop-color="#0040BF"/>
</radialGradient>
<linearGradient id="paint6_linear_239_2" x1="70.7957" y1="113.483" x2="207.651" y2="115.289" gradientUnits="userSpaceOnUse">
<stop stop-color="#E6EEFF"/>
<stop offset="0.1" stop-color="#D4E0FA"/>
<stop offset="0.2" stop-color="#C2D2F6"/>
<stop offset="0.35" stop-color="#DFE7FA"/>
<stop offset="0.5" stop-color="#FCFCFE"/>
<stop offset="0.65" stop-color="#FDFDFE"/>
<stop offset="0.8" stop-color="white"/>
<stop offset="0.9" stop-color="#F0F4FE"/>
<stop offset="1" stop-color="#E1E9FE"/>
</linearGradient>
<radialGradient id="paint7_radial_239_2" cx="0" cy="0" r="1" gradientUnits="userSpaceOnUse" gradientTransform="translate(76.5536 143.969) scale(26.8744)">
<stop stop-color="#00449B"/>
<stop offset="0.5" stop-color="#3B72BE" stop-opacity="0.5"/>
<stop offset="1" stop-color="#77A0E2" stop-opacity="0"/>
</radialGradient>
<radialGradient id="paint8_radial_239_2" cx="0" cy="0" r="1" gradientUnits="userSpaceOnUse" gradientTransform="translate(183.557 84.1308) scale(18.7366 21.2877)">
<stop stop-color="white"/>
<stop offset="0.27" stop-color="white" stop-opacity="0.645"/>
<stop offset="0.54" stop-color="white" stop-opacity="0.29"/>
<stop offset="0.77" stop-color="white" stop-opacity="0.145"/>
<stop offset="1" stop-color="white" stop-opacity="0"/>
</radialGradient>
<linearGradient id="paint9_linear_239_2" x1="39.2919" y1="130.756" x2="63.8326" y2="168.546" gradientUnits="userSpaceOnUse">
<stop stop-color="#ACC5FD"/>
<stop offset="0.5" stop-color="#7295DB"/>
<stop offset="1" stop-color="#3966B8"/>
</linearGradient>
<radialGradient id="paint10_radial_239_2" cx="0" cy="0" r="1" gradientUnits="userSpaceOnUse" gradientTransform="translate(55.8906 123.643) scale(38.498 38.498)">
<stop stop-color="#E2E9FA"/>
<stop offset="0.17" stop-color="#DCE6FC" stop-opacity="0.835"/>
<stop offset="0.33" stop-color="#D6E3FF" stop-opacity="0.67"/>
<stop offset="0.67" stop-color="#B0C6F4" stop-opacity="0.335"/>
<stop offset="1" stop-color="#8BA9E8" stop-opacity="0"/>
</radialGradient>
<radialGradient id="paint11_radial_239_2" cx="0" cy="0" r="1" gradientUnits="userSpaceOnUse" gradientTransform="translate(134.564 84.2287) scale(21.6556 21.6556)">
<stop stop-color="white"/>
<stop offset="0.27" stop-color="white" stop-opacity="0.645"/>
<stop offset="0.54" stop-color="white" stop-opacity="0.29"/>
<stop offset="0.77" stop-color="white" stop-opacity="0.145"/>
<stop offset="1" stop-color="white" stop-opacity="0"/>
</radialGradient>
<clipPath id="clip0_239_2">
<rect width="271" height="271" fill="white"/>
</clipPath>
</defs>
</svg>
