<svg width="50" height="52" viewBox="0 0 50 52" fill="none" xmlns="http://www.w3.org/2000/svg">
<g clip-path="url(#clip0_260_79)">
<path d="M45.0127 9.52266C47.1896 11.1308 49.2462 14.5884 49.5379 17.2296L49.5405 17.253C49.5675 17.4941 50 21.4221 50 25.9724C50 30.5613 49.5703 34.4288 49.5407 34.6895L49.5375 34.7184C49.2437 37.368 47.2323 40.8378 44.991 42.4382L44.9878 42.4405C44.9336 42.479 41.6134 44.8356 37.5 47.1924C33.5744 49.4106 30.0505 50.9546 29.5993 51.1501C29.5662 51.1645 29.5345 51.1786 29.5015 51.1933C28.2959 51.7311 26.648 52 25 52C23.3977 52 21.7387 51.7273 20.4746 51.1821L20.4265 51.1614C20.1062 51.0252 16.4607 49.4615 12.5 47.1924C8.55042 44.9295 5.33219 42.6667 5.03407 42.456C5.01746 42.4442 5.00356 42.4342 4.98721 42.4221C2.81044 40.814 0.753809 37.3563 0.462101 34.7151L0.459507 34.6918C0.432466 34.4506 0 30.5226 0 25.9724C0 21.3835 0.429666 17.516 0.459231 17.2552L0.462461 17.2264C0.755401 14.5845 2.75583 11.1273 4.9892 9.52079C5.0042 9.50999 5.01678 9.50113 5.03197 9.49065C5.31682 9.2937 8.541 7.07588 12.5 4.80765C16.4256 2.5894 19.9495 1.04536 20.4007 0.849899C20.4338 0.835526 20.4655 0.821413 20.4985 0.806681C21.7041 0.268894 23.352 0 25 0C26.6022 0 28.2612 0.272651 29.5254 0.817952L29.5735 0.838581C29.8938 0.974829 33.5393 2.53848 37.5 4.80765C41.4496 7.01784 44.6678 9.27818 44.9659 9.48878C44.9825 9.50056 44.9964 9.51056 45.0127 9.52266Z" fill="#0065B1"/>
<path d="M33.5184 22.8279V29.0679C33.5184 30.0897 32.9629 31.0385 32.0647 31.5585L26.5647 34.6876C25.6666 35.1985 24.5555 35.1985 23.648 34.6876L18.148 31.5585C17.2499 31.0476 16.6943 30.0988 16.6943 29.0679V22.8279C16.6943 21.8062 17.2499 20.8574 18.148 20.3374L23.648 17.2083C24.5462 16.6974 25.6573 16.6974 26.5647 17.2083L32.0647 20.3374C32.9629 20.8574 33.5184 21.7971 33.5184 22.8279Z" stroke="white" stroke-width="1.4" stroke-linecap="round" stroke-linejoin="round"/>
<path d="M25.1111 27.4856V27.2272C25.1111 26.3903 25.6366 25.9472 26.1621 25.5903C26.6751 25.2457 27.188 24.8026 27.188 23.9903C27.188 22.858 26.2622 21.9472 25.1111 21.9472C23.96 21.9472 23.0342 22.858 23.0342 23.9903" stroke="white" stroke-width="1.4" stroke-linecap="round" stroke-linejoin="round"/>
<path d="M25.105 30.2547H25.1175" stroke="white" stroke-width="1.4" stroke-linecap="round" stroke-linejoin="round"/>
</g>
<defs>
<clipPath id="clip0_260_79">
<rect width="50" height="52" fill="white"/>
</clipPath>
</defs>
</svg>
