<svg width="28" height="20" viewBox="0 0 28 20" fill="none" xmlns="http://www.w3.org/2000/svg">
<path fill-rule="evenodd" clip-rule="evenodd" d="M0.517862 8.0509C-0.172621 7.7202 -0.17262 6.67 0.517863 6.3392L13.5241 0.108863C13.8271 -0.0362875 14.1735 -0.0362875 14.4765 0.108863L27.4827 6.3392C28.1732 6.67 28.1732 7.7202 27.4827 8.0509L21.9877 10.6832V14.842C21.9877 15.7187 21.6233 16.5499 20.9935 17.1096C16.9399 20.7121 11.0668 20.7121 7.01324 17.1096C6.38344 16.5499 6.01901 15.7187 6.01901 14.842V10.6861L3.59658 9.5257V14.3657C3.59658 14.7799 3.28319 15.1157 2.89658 15.1157C2.50999 15.1157 2.19658 14.7799 2.19658 14.3657V8.8551L0.517862 8.0509ZM3.39689 7.787C3.27659 7.6553 3.11138 7.5709 2.9278 7.5623L2.16126 7.1951L14.0003 1.52385L25.8393 7.1951L14.0003 12.8663L3.39689 7.787ZM7.41901 11.3568V14.842C7.41901 15.2723 7.59789 15.6803 7.90704 15.9551C11.4423 19.0969 16.5644 19.0969 20.0996 15.9551C20.4088 15.6803 20.5877 15.2723 20.5877 14.842V11.3539L14.4765 14.2813C14.1735 14.4265 13.8271 14.4265 13.5241 14.2813L7.41901 11.3568Z" fill="white"/>
</svg>
