<svg width="26" height="25" viewBox="0 0 26 25" fill="none" xmlns="http://www.w3.org/2000/svg">
<path fill-rule="evenodd" clip-rule="evenodd" d="M15.4852 10.746L16.0952 11.2882L24.0692 18.3775V22.751H19.8852L18.1631 21.2054L19.6733 19.5514C19.9526 19.2455 19.931 18.7711 19.6251 18.4918C19.3192 18.2125 18.8449 18.2341 18.5656 18.54L17.0467 20.2035L15.218 18.5622L16.7814 16.862C17.0617 16.557 17.0418 16.0826 16.7369 15.8022C16.432 15.5219 15.9575 15.5418 15.6772 15.8467L14.1016 17.5602L12.1565 15.8145L11.5361 15.2577L10.7357 15.4905C10.1263 15.6677 9.48052 15.7633 8.80986 15.7633C5.01032 15.7633 1.93018 12.6831 1.93018 8.88359C1.93018 5.08405 5.01032 2.00391 8.80986 2.00391C12.6094 2.00391 15.6895 5.08405 15.6895 8.88359C15.6895 9.2435 15.662 9.596 15.6092 9.9393L15.4852 10.746ZM25.1498 17.3311C25.4166 17.5683 25.5692 17.9082 25.5692 18.2653V23.001C25.5692 23.6914 25.0096 24.251 24.3192 24.251H19.7895C19.4813 24.251 19.1839 24.1371 18.9545 23.9313L11.1546 16.9308C10.4106 17.1472 9.62382 17.2633 8.80986 17.2633C4.18189 17.2633 0.430176 13.5116 0.430176 8.88359C0.430176 4.25562 4.18189 0.503906 8.80986 0.503906C13.4378 0.503906 17.1895 4.25562 17.1895 8.88359C17.1895 9.3201 17.1562 9.7487 17.0918 10.1672L25.1498 17.3311ZM8.1007 10.0693C7.06421 10.0693 6.22397 9.2298 6.22397 8.19431C6.22397 7.15878 7.06421 6.31931 8.1007 6.31931C9.13722 6.31931 9.97742 7.15878 9.97742 8.19431C9.97742 9.2298 9.13722 10.0693 8.1007 10.0693Z" fill="white"/>
</svg>
