<svg width="158" height="154" viewBox="0 0 158 154" fill="none" xmlns="http://www.w3.org/2000/svg">
<path d="M77.33 142.243C99.6102 142.243 117.7 144.871 117.7 148.107C117.7 151.344 99.6102 153.972 77.33 153.972C55.0498 153.972 36.96 151.344 36.96 148.107C36.96 144.871 55.0498 142.243 77.33 142.243Z" fill="url(#paint0_radial_46_1370)" fill-opacity="0.5"/>
<path d="M141.917 67.0659C133.846 60.9281 123.534 60.2175 116.912 68.7201C110.29 77.2225 114.656 88.3617 122.86 92.7914C134.873 99.2781 152.218 102.13 156.374 95.786C160.531 89.4418 150.119 73.304 141.917 67.0659Z" fill="url(#paint1_linear_46_1370)"/>
<path d="M141.917 67.0659C133.846 60.9281 123.534 60.2175 116.912 68.7201C110.29 77.2225 114.656 88.3617 122.86 92.7914C134.873 99.2781 152.218 102.13 156.374 95.786C160.531 89.4418 150.119 73.304 141.917 67.0659Z" fill="url(#paint2_radial_46_1370)"/>
<path d="M38.2017 83.597V41.6227C38.2017 18.68 56.8284 0.0532837 79.7711 0.0532837C102.714 0.0532837 121.341 18.68 121.341 41.6227V85.5809C121.341 125.369 38.2017 115.124 38.2017 83.597Z" fill="url(#paint3_radial_46_1370)"/>
<path d="M124.843 39.9571V82.4578C124.843 107.333 104.647 127.529 79.7718 127.529C54.896 127.529 34.7002 107.333 34.7002 82.4578V37.8062C34.7002 34.6384 36.0662 32.8463 39.3015 33.8356C43.6058 35.1519 45.4171 36.559 48.3389 42.0737C51.0409 47.1742 60.6741 65.6086 62.9475 69.2725C67.4833 76.5816 74.6841 85.399 94.366 85.399C109.145 85.399 121.653 73.493 121.653 60.7554V35.1519C121.653 33.3621 124.843 35.7368 124.843 39.9571Z" fill="url(#paint4_linear_46_1370)"/>
<path d="M86.6354 100.826C86.5085 102.138 86.323 107.623 86.261 108.666C86.1987 109.708 86.9443 110.515 87.8082 111.125C88.6724 111.735 92.1011 113.743 93.3203 114.222C94.5396 114.701 95.8448 114.602 96.8925 114.222C97.9401 113.841 102.026 111.18 102.784 110.465C103.542 109.751 104.261 108.398 104.486 107.091C104.722 105.717 104.983 102.66 105.009 101.828C105.056 100.35 104.928 99.8668 104.023 98.9571C102.902 97.8298 100.114 95.9328 98.889 95.2077C97.7049 94.5065 95.8248 94.4084 94.2685 95.2387C93.0625 95.882 89.3509 97.8279 88.3006 98.4993C87.2505 99.1705 86.7247 99.9027 86.6354 100.826Z" fill="url(#paint5_radial_46_1370)"/>
<path d="M88.8815 101.172C88.8058 101.954 88.6954 105.221 88.6584 105.842C88.6212 106.463 89.0656 106.944 89.5802 107.307C90.095 107.671 92.1375 108.867 92.8637 109.152C93.5899 109.437 94.3676 109.379 94.9918 109.152C95.6159 108.925 98.0502 107.34 98.5017 106.915C98.9533 106.489 99.3814 105.683 99.5152 104.904C99.6558 104.086 99.8115 102.265 99.8272 101.769C99.8553 100.889 99.7785 100.601 99.2395 100.059C98.5718 99.3875 96.9111 98.2571 96.1811 97.8252C95.4758 97.4075 94.3558 97.3492 93.4287 97.8437C92.7102 98.227 90.4992 99.3861 89.8735 99.7861C89.248 100.186 88.9347 100.622 88.8815 101.172Z" fill="white"/>
<path d="M86.6352 100.826C86.5082 102.138 86.3228 107.623 86.2607 108.666C86.4711 106.308 86.7302 101.893 86.836 100.884C86.9597 99.7056 87.8007 99.1168 88.4273 98.7158C89.9114 97.766 93.1685 96.0927 94.335 95.4706C95.5232 94.8365 97.4906 94.6429 98.7479 95.4321C100.206 96.3468 102.442 97.7962 103.842 99.0893C104.762 99.9385 104.883 100.39 105.009 101.828C105.056 100.35 104.927 99.8668 104.023 98.9571C102.902 97.8298 100.114 95.9328 98.8887 95.2077C97.7047 94.5065 95.8246 94.4084 94.2683 95.2387C93.0623 95.882 89.3506 97.8279 88.3004 98.4993C87.2503 99.1705 86.7245 99.9027 86.6352 100.826Z" fill="#0042C3"/>
<path d="M105.009 101.828C105.008 102.996 104.942 104.426 104.661 107.088C104.558 108.068 103.987 109.882 102.88 110.723C101.121 112.06 98.8463 113.668 97.0198 114.446C95.504 115.092 94.0166 114.811 93.2444 114.449C91.1379 113.462 88.976 112.102 87.5981 111.255C86.1573 110.369 86.1824 109.547 86.2607 108.666C86.1985 109.708 86.9441 110.515 87.808 111.125C88.6722 111.735 92.1009 113.743 93.3201 114.222C94.5393 114.701 95.8446 114.602 96.8922 114.222C97.9399 113.841 102.026 111.18 102.784 110.465C103.542 109.751 104.261 108.398 104.486 107.091C104.721 105.717 104.983 102.66 105.009 101.828Z" fill="#98B5FF"/>
<path d="M34.6997 40.7649V37.8059C34.6997 34.6382 36.0659 32.846 39.3012 33.8356C43.6053 35.1516 45.4168 36.5588 48.3386 42.0737C51.0406 47.1742 60.6738 65.6084 62.9473 69.2723C67.4828 76.5814 74.6834 85.3988 94.3655 85.3988C109.145 85.3988 121.652 73.4928 121.652 60.7552V35.1516C121.652 33.3622 124.843 35.7366 124.843 39.9569V60.5148C124.843 74.8537 113.877 88.6246 94.8231 88.6246C73.08 88.6246 64.4039 80.0635 59.1217 69.9614C54.8581 61.8071 46.3368 45.7719 44.159 41.7721C41.5877 37.0491 38.6597 37.0494 36.7109 36.555C34.8167 36.0748 34.6997 39.0113 34.6997 40.7649Z" fill="url(#paint6_linear_46_1370)"/>
<path d="M40.6954 56.8315C48.2386 56.8315 54.3532 67.9803 54.3532 81.7329C54.3532 95.4855 48.2386 106.634 40.6954 106.634C33.1523 106.634 27.0376 95.4855 27.0376 81.7329C27.0376 67.9803 33.1523 56.8315 40.6954 56.8315Z" fill="url(#paint7_radial_46_1370)"/>
<path d="M108.317 30.9866C112.526 30.9866 115.938 35.9806 115.938 42.1408C115.938 48.301 112.526 53.295 108.317 53.295C104.107 53.295 100.695 48.301 100.695 42.1408C100.695 35.9806 104.107 30.9866 108.317 30.9866Z" fill="white"/>
<g opacity="0.999997">
<path d="M107.589 24.6871C114.151 24.6871 119.47 32.5015 119.47 42.1408C119.47 51.7801 114.151 59.5945 107.589 59.5945C101.027 59.5945 95.7075 51.7801 95.7075 42.1408C95.7075 32.5015 101.027 24.6871 107.589 24.6871Z" fill="url(#paint8_radial_46_1370)"/>
</g>
<path d="M16.1273 67.0659C24.1976 60.9282 34.5099 60.2176 41.1321 68.7201C47.7543 77.2225 43.3875 88.3617 35.1842 92.7914C23.1713 99.2781 5.82627 102.13 1.66959 95.7861C-2.48731 89.4419 7.92529 73.304 16.1273 67.0659Z" fill="url(#paint9_linear_46_1370)"/>
<path d="M16.1273 67.0659C24.1976 60.9282 34.5099 60.2176 41.1321 68.7201C47.7543 77.2225 43.3875 88.3617 35.1842 92.7914C23.1713 99.2781 5.82627 102.13 1.66959 95.7861C-2.48731 89.4419 7.92529 73.304 16.1273 67.0659Z" fill="url(#paint10_radial_46_1370)"/>
<path d="M81.9021 63.8583C83.8575 65.1906 85.8898 66.1705 87.9504 66.7744C89.4684 67.2195 90.9932 67.4492 92.4707 67.4813C93.0973 67.4949 93.7168 67.465 94.3209 67.3893C95.2671 67.271 96.1788 67.0688 97.0414 66.7738C99.3651 65.9796 101.333 64.6967 102.798 63.0063C103.115 62.7079 103.13 62.2088 102.832 61.892C102.533 61.5754 102.034 61.5604 101.717 61.8587C100.223 63.0043 98.3722 63.6491 96.3341 63.9916C95.7111 64.0964 95.074 64.1547 94.4197 64.2044C93.7896 64.2523 93.147 64.2702 92.4918 64.2754C90.9215 64.2882 89.2884 64.1621 87.6193 63.7972C86.0353 63.4507 84.4253 62.9794 82.8345 62.2312C82.3855 61.9738 81.8121 62.1296 81.5547 62.5786C81.2976 63.0276 81.4531 63.6009 81.9021 63.8583Z" fill="white"/>
<path d="M76.6373 30.9866C80.8466 30.9866 84.259 35.9806 84.259 42.1408C84.259 48.301 80.8466 53.295 76.6373 53.295C72.428 53.295 69.0156 48.301 69.0156 42.1408C69.0156 35.9806 72.428 30.9866 76.6373 30.9866Z" fill="white"/>
<g opacity="0.999997">
<path d="M76.6362 24.6871C84.4871 24.6871 90.8515 32.5015 90.8515 42.1408C90.8515 51.7801 84.4871 59.5945 76.6362 59.5945C68.7853 59.5945 62.4209 51.7801 62.4209 42.1408C62.4209 32.5015 68.7853 24.6871 76.6362 24.6871Z" fill="url(#paint11_radial_46_1370)"/>
</g>
<defs>
<radialGradient id="paint0_radial_46_1370" cx="0" cy="0" r="1" gradientUnits="userSpaceOnUse" gradientTransform="translate(77.33 148.107) scale(33.1055 5.41724)">
<stop stop-color="#0065B1"/>
<stop offset="0.14" stop-color="#0065B1" stop-opacity="0.855"/>
<stop offset="0.28" stop-color="#0065B1" stop-opacity="0.71"/>
<stop offset="0.64" stop-color="#0065B1" stop-opacity="0.355"/>
<stop offset="1" stop-color="#0065B1" stop-opacity="0"/>
</radialGradient>
<linearGradient id="paint1_linear_46_1370" x1="143.218" y1="71.92" x2="126.865" y2="97.2933" gradientUnits="userSpaceOnUse">
<stop stop-color="#ACC5FD"/>
<stop offset="0.5" stop-color="#7295DB"/>
<stop offset="1" stop-color="#3966B8"/>
</linearGradient>
<radialGradient id="paint2_radial_46_1370" cx="0" cy="0" r="1" gradientUnits="userSpaceOnUse" gradientTransform="translate(134.198 66.42) scale(25.587)">
<stop stop-color="#E2E9FA"/>
<stop offset="0.17" stop-color="#DCE6FC" stop-opacity="0.835"/>
<stop offset="0.33" stop-color="#D6E3FF" stop-opacity="0.67"/>
<stop offset="0.67" stop-color="#B0C6F4" stop-opacity="0.335"/>
<stop offset="1" stop-color="#8BA9E8" stop-opacity="0"/>
</radialGradient>
<radialGradient id="paint3_radial_46_1370" cx="0" cy="0" r="1" gradientUnits="userSpaceOnUse" gradientTransform="translate(64.238 23.96) scale(72.1523 72.1523)">
<stop stop-color="#0060D3"/>
<stop offset="0.14" stop-color="#0055C4"/>
<stop offset="0.27" stop-color="#004BB4"/>
<stop offset="0.63" stop-color="#003695"/>
<stop offset="1" stop-color="#002176"/>
</radialGradient>
<linearGradient id="paint4_linear_46_1370" x1="82.7181" y1="130.44" x2="78.5381" y2="36.94" gradientUnits="userSpaceOnUse">
<stop stop-color="#2667C5"/>
<stop offset="0.5" stop-color="#749DDE"/>
<stop offset="1" stop-color="#C2D2F6"/>
</linearGradient>
<radialGradient id="paint5_radial_46_1370" cx="0" cy="0" r="1" gradientUnits="userSpaceOnUse" gradientTransform="translate(93.0581 104.04) scale(10.5258)">
<stop stop-color="#D7E2FF"/>
<stop offset="0.5" stop-color="#6C91DF"/>
<stop offset="1" stop-color="#0040BF"/>
</radialGradient>
<linearGradient id="paint6_linear_46_1370" x1="34.978" y1="60.7" x2="123.858" y2="61.8733" gradientUnits="userSpaceOnUse">
<stop stop-color="#E6EEFF"/>
<stop offset="0.1" stop-color="#D4E0FA"/>
<stop offset="0.2" stop-color="#C2D2F6"/>
<stop offset="0.35" stop-color="#DFE7FA"/>
<stop offset="0.5" stop-color="#FCFCFE"/>
<stop offset="0.65" stop-color="#FDFDFE"/>
<stop offset="0.8" stop-color="white"/>
<stop offset="0.9" stop-color="#F0F4FE"/>
<stop offset="1" stop-color="#E1E9FE"/>
</linearGradient>
<radialGradient id="paint7_radial_46_1370" cx="0" cy="0" r="1" gradientUnits="userSpaceOnUse" gradientTransform="translate(38.7181 80.5) scale(17.4535)">
<stop stop-color="#00449B"/>
<stop offset="0.5" stop-color="#3B72BE" stop-opacity="0.5"/>
<stop offset="1" stop-color="#77A0E2" stop-opacity="0"/>
</radialGradient>
<radialGradient id="paint8_radial_46_1370" cx="0" cy="0" r="1" gradientUnits="userSpaceOnUse" gradientTransform="translate(108.211 41.6366) scale(12.1684 13.8252)">
<stop stop-color="white"/>
<stop offset="0.27" stop-color="white" stop-opacity="0.645"/>
<stop offset="0.54" stop-color="white" stop-opacity="0.29"/>
<stop offset="0.77" stop-color="white" stop-opacity="0.145"/>
<stop offset="1" stop-color="white" stop-opacity="0"/>
</radialGradient>
<linearGradient id="paint9_linear_46_1370" x1="14.5178" y1="71.92" x2="30.4557" y2="96.4623" gradientUnits="userSpaceOnUse">
<stop stop-color="#ACC5FD"/>
<stop offset="0.5" stop-color="#7295DB"/>
<stop offset="1" stop-color="#3966B8"/>
</linearGradient>
<radialGradient id="paint10_radial_46_1370" cx="0" cy="0" r="1" gradientUnits="userSpaceOnUse" gradientTransform="translate(25.2978 67.3) scale(25.0024 25.0024)">
<stop stop-color="#E2E9FA"/>
<stop offset="0.17" stop-color="#DCE6FC" stop-opacity="0.835"/>
<stop offset="0.33" stop-color="#D6E3FF" stop-opacity="0.67"/>
<stop offset="0.67" stop-color="#B0C6F4" stop-opacity="0.335"/>
<stop offset="1" stop-color="#8BA9E8" stop-opacity="0"/>
</radialGradient>
<radialGradient id="paint11_radial_46_1370" cx="0" cy="0" r="1" gradientUnits="userSpaceOnUse" gradientTransform="translate(76.3927 41.7001) scale(14.0642 14.0641)">
<stop stop-color="white"/>
<stop offset="0.27" stop-color="white" stop-opacity="0.645"/>
<stop offset="0.54" stop-color="white" stop-opacity="0.29"/>
<stop offset="0.77" stop-color="white" stop-opacity="0.145"/>
<stop offset="1" stop-color="white" stop-opacity="0"/>
</radialGradient>
</defs>
</svg>
