<svg width="9" height="14" viewBox="0 0 9 14" fill="none" xmlns="http://www.w3.org/2000/svg">
<g clip-path="url(#clip0_46_1450)">
<path d="M8.27392 7.38445L1.85762 13.3653C1.70922 13.5037 1.51112 13.58 1.29988 13.58C1.08865 13.58 0.890541 13.5037 0.742147 13.3653L0.269647 12.925C-0.0378351 12.638 -0.0378351 12.1717 0.269647 11.8852L5.65756 6.86281L0.263665 1.83486C0.115271 1.69642 0.0333176 1.51187 0.0333176 1.31507C0.0333176 1.11807 0.115271 0.933512 0.263665 0.794963L0.736165 0.354725C0.884665 0.216283 1.08266 0.140015 1.2939 0.140015C1.50514 0.140015 1.70324 0.216283 1.85164 0.354725L8.27392 6.34106C8.42267 6.47994 8.50437 6.66536 8.5039 6.86248C8.50437 7.06038 8.42267 7.24569 8.27392 7.38445Z" fill="white"/>
</g>
<defs>
<clipPath id="clip0_46_1450">
<rect width="9" height="14" fill="white" transform="matrix(-1 0 0 1 9 0)"/>
</clipPath>
</defs>
</svg>
