<svg width="28" height="18" viewBox="0 0 28 18" fill="none" xmlns="http://www.w3.org/2000/svg">
<g clip-path="url(#clip0_46_1446)">
<path d="M21.3704 16.3203C22.9069 16.3203 24.1529 15.001 24.1529 13.3741C24.1529 11.7472 22.9069 10.4279 21.3704 10.4279C19.8339 10.4279 18.5879 11.7472 18.5879 13.3741C18.5879 15.001 19.8339 16.3203 21.3704 16.3203Z" stroke="white" stroke-width="1.5" stroke-miterlimit="10" stroke-linecap="round" stroke-linejoin="round"/>
<path d="M6.52878 16.3203C8.06528 16.3203 9.31128 15.001 9.31128 13.3741C9.31128 11.7472 8.06528 10.4279 6.52878 10.4279C4.99228 10.4279 3.74512 11.746 3.74512 13.3729C3.74512 14.9998 4.99112 16.3203 6.52878 16.3203Z" stroke="white" stroke-width="1.5" stroke-miterlimit="10" stroke-linecap="round" stroke-linejoin="round"/>
<path d="M9.31151 13.4065H18.5818M24.1538 13.4065H24.7582C26.0473 13.4065 27.0915 12.3009 27.0915 10.936V7.88102L21.096 5.56979L16.6872 2.05662C15.9265 1.45132 15.0013 1.12396 14.0505 1.12396H7.10768C5.82668 1.12396 4.61101 1.7169 3.77685 2.74591L0.90918 6.28996V10.9371C0.90918 12.3022 1.95335 13.4078 3.24251 13.4078H3.74535" stroke="white" stroke-width="1.5" stroke-miterlimit="10" stroke-linecap="round" stroke-linejoin="round"/>
</g>
<defs>
<clipPath id="clip0_46_1446">
<rect width="28" height="18" fill="white"/>
</clipPath>
</defs>
</svg>
