<svg width="29" height="24" viewBox="0 0 29 24" fill="none" xmlns="http://www.w3.org/2000/svg">
<path d="M26.1475 12.6165C24.6529 11.461 22.7431 11.3272 21.5167 12.928C20.2903 14.5287 21.099 16.6259 22.6182 17.4599C24.843 18.6811 28.0552 19.2181 28.825 18.0237C29.5949 16.8293 27.6665 13.791 26.1475 12.6165Z" fill="url(#paint0_linear_356_276)"/>
<path d="M26.1475 12.6165C24.6529 11.461 22.7431 11.3272 21.5167 12.928C20.2903 14.5287 21.099 16.6259 22.6182 17.4599C24.843 18.6811 28.0552 19.2181 28.825 18.0237C29.5949 16.8293 27.6665 13.791 26.1475 12.6165Z" fill="url(#paint1_radial_356_276)"/>
<path d="M6.93848 15.7288V7.82631C6.93848 3.50687 10.3881 0 14.637 0C18.886 0 22.3356 3.50687 22.3356 7.82631V16.1024C22.3356 23.5933 6.93848 21.6644 6.93848 15.7288Z" fill="url(#paint2_radial_356_276)"/>
<path d="M22.9852 7.51272V15.5144C22.9852 20.1977 19.2451 24 14.6382 24C10.0312 24 6.29102 20.1977 6.29102 15.5144V7.10776C6.29102 6.51136 6.54399 6.17395 7.14316 6.36022C7.94031 6.60803 8.27575 6.87295 8.81686 7.91122C9.31727 8.87149 11.1013 12.3422 11.5224 13.032C12.3624 14.408 13.6959 16.0681 17.341 16.0681C20.0781 16.0681 22.3944 13.8266 22.3944 11.4284V6.60803C22.3944 6.27108 22.9852 6.71817 22.9852 7.51272Z" fill="url(#paint3_linear_356_276)"/>
<path d="M15.9099 18.9725C15.8864 19.2196 15.852 20.2523 15.8405 20.4485C15.829 20.6448 15.9671 20.7967 16.1271 20.9115C16.2871 21.0264 16.9221 21.4044 17.1479 21.4946C17.3737 21.5848 17.6154 21.5662 17.8094 21.4946C18.0035 21.4229 18.7602 20.9219 18.9006 20.7874C19.041 20.6528 19.1741 20.3981 19.2157 20.1521C19.2594 19.8934 19.3078 19.3179 19.3127 19.1612C19.3214 18.8829 19.2975 18.792 19.13 18.6207C18.9224 18.4085 18.4061 18.0513 18.1792 17.9148C17.9599 17.7828 17.6117 17.7643 17.3235 17.9206C17.1001 18.0417 16.4128 18.4081 16.2183 18.5345C16.0238 18.6609 15.9264 18.7987 15.9099 18.9725Z" fill="url(#paint4_radial_356_276)"/>
<path d="M16.3259 19.0377C16.3119 19.1849 16.2914 19.8001 16.2846 19.917C16.2777 20.0339 16.36 20.1244 16.4553 20.1928C16.5506 20.2612 16.9289 20.4864 17.0634 20.5401C17.1979 20.5939 17.3419 20.5828 17.4575 20.5401C17.5731 20.4974 18.0239 20.199 18.1075 20.1189C18.1912 20.0387 18.2705 19.887 18.2952 19.7404C18.3213 19.5863 18.3501 19.2435 18.353 19.1501C18.3582 18.9843 18.344 18.9302 18.2442 18.8281C18.1205 18.7017 17.813 18.4889 17.6778 18.4076C17.5471 18.329 17.3397 18.318 17.168 18.4111C17.035 18.4832 16.6255 18.7015 16.5096 18.7768C16.3938 18.8521 16.3358 18.9342 16.3259 19.0377Z" fill="white"/>
<path d="M15.9092 18.9725C15.8857 19.2196 15.8513 20.2523 15.8398 20.4485C15.8788 20.0046 15.9268 19.1735 15.9464 18.9834C15.9693 18.7616 16.125 18.6508 16.2411 18.5753C16.5159 18.3965 17.1191 18.0814 17.3352 17.9643C17.5552 17.8449 17.9196 17.8085 18.1524 17.957C18.4225 18.1293 18.8365 18.4021 19.0959 18.6456C19.2662 18.8055 19.2886 18.8905 19.312 19.1612C19.3207 18.8829 19.2968 18.792 19.1293 18.6207C18.9217 18.4085 18.4054 18.0513 18.1785 17.9148C17.9592 17.7828 17.611 17.7643 17.3228 17.9206C17.0995 18.0417 16.4121 18.4081 16.2176 18.5345C16.0231 18.6609 15.9257 18.7987 15.9092 18.9725Z" fill="#0042C3"/>
<path d="M19.3135 19.1612C19.3133 19.3811 19.3011 19.6503 19.2491 20.1516C19.2299 20.336 19.1243 20.6776 18.9193 20.836C18.5935 21.0877 18.1722 21.3903 17.8339 21.5368C17.5532 21.6584 17.2777 21.6055 17.1347 21.5374C16.7446 21.3515 16.3442 21.0956 16.089 20.9361C15.8222 20.7692 15.8269 20.6146 15.8414 20.4485C15.8298 20.6448 15.9679 20.7967 16.1279 20.9115C16.288 21.0264 16.9229 21.4044 17.1487 21.4946C17.3745 21.5848 17.6163 21.5663 17.8103 21.4946C18.0043 21.423 18.7611 20.9219 18.9014 20.7874C19.0418 20.6528 19.175 20.3981 19.2165 20.1521C19.2602 19.8935 19.3086 19.3179 19.3135 19.1612Z" fill="#98B5FF"/>
<path d="M6.29102 7.66483V7.10774C6.29102 6.51134 6.54403 6.17393 7.14321 6.36024C7.94031 6.60801 8.27579 6.87293 8.8169 7.91124C9.31732 8.87151 11.1013 12.3421 11.5224 13.0319C12.3624 14.408 13.6959 16.0681 17.341 16.0681C20.078 16.0681 22.3944 13.8265 22.3944 11.4284V6.60801C22.3944 6.2711 22.9852 6.71814 22.9852 7.5127V11.3831C22.9852 14.0828 20.9545 16.6754 17.4257 16.6754C13.399 16.6754 11.7922 15.0636 10.8139 13.1617C10.0243 11.6264 8.44618 8.6075 8.04286 7.85445C7.56665 6.96525 7.0244 6.96529 6.66349 6.87222C6.31269 6.78181 6.29102 7.33467 6.29102 7.66483Z" fill="url(#paint5_linear_356_276)"/>
<path d="M7.40097 10.6897C8.79794 10.6897 9.93037 12.7887 9.93037 15.3779C9.93037 17.9671 8.79794 20.0661 7.40097 20.0661C6.004 20.0661 4.87158 17.9671 4.87158 15.3779C4.87158 12.7887 6.004 10.6897 7.40097 10.6897Z" fill="url(#paint6_radial_356_276)"/>
<path d="M19.9252 5.82385C20.7047 5.82385 21.3367 6.76408 21.3367 7.92387C21.3367 9.08366 20.7047 10.0239 19.9252 10.0239C19.1456 10.0239 18.5137 9.08366 18.5137 7.92387C18.5137 6.76408 19.1456 5.82385 19.9252 5.82385Z" fill="white"/>
<g opacity="0.999997">
<path d="M19.7893 4.63782C21.0045 4.63782 21.9897 6.10904 21.9897 7.92383C21.9897 9.73863 21.0045 11.2098 19.7893 11.2098C18.574 11.2098 17.5889 9.73863 17.5889 7.92383C17.5889 6.10904 18.574 4.63782 19.7893 4.63782Z" fill="url(#paint7_radial_356_276)"/>
</g>
<path d="M2.85263 12.6165C4.34723 11.4609 6.25703 11.3271 7.48345 12.9279C8.70987 14.5287 7.90115 16.6259 6.38191 17.4598C4.15716 18.6811 0.944904 19.2181 0.175098 18.0236C-0.594749 16.8292 1.33364 13.7909 2.85263 12.6165Z" fill="url(#paint8_linear_356_276)"/>
<path d="M2.85263 12.6165C4.34723 11.4609 6.25703 11.3271 7.48345 12.9279C8.70987 14.5287 7.90115 16.6259 6.38191 17.4598C4.15716 18.6811 0.944904 19.2181 0.175098 18.0236C-0.594749 16.8292 1.33364 13.7909 2.85263 12.6165Z" fill="url(#paint9_radial_356_276)"/>
<path d="M15.0336 12.0127C15.3957 12.2635 15.7721 12.448 16.1537 12.5617C16.4348 12.6455 16.7172 12.6887 16.9909 12.6948C17.1069 12.6973 17.2216 12.6917 17.3335 12.6775C17.5088 12.6552 17.6776 12.6171 17.8374 12.5616C18.2677 12.412 18.6322 12.1705 18.9035 11.8523C18.9622 11.7961 18.9649 11.7021 18.9097 11.6425C18.8544 11.5829 18.7619 11.58 18.7033 11.6362C18.4267 11.8519 18.0838 11.9733 17.7064 12.0378C17.591 12.0575 17.473 12.0685 17.3518 12.0778C17.2351 12.0869 17.1161 12.0902 16.9948 12.0912C16.704 12.0936 16.4015 12.0699 16.0924 12.0012C15.799 11.9359 15.5009 11.8472 15.2063 11.7063C15.1231 11.6579 15.0169 11.6872 14.9693 11.7717C14.9216 11.8563 14.9504 11.9642 15.0336 12.0127Z" fill="white"/>
<path d="M14.057 5.82382C14.8366 5.82382 15.4685 6.76405 15.4685 7.92384C15.4685 9.08363 14.8366 10.0239 14.057 10.0239C13.2775 10.0239 12.6455 9.08363 12.6455 7.92384C12.6455 6.76405 13.2775 5.82382 14.057 5.82382Z" fill="white"/>
<g opacity="0.999997">
<path d="M14.0584 4.63782C15.5124 4.63782 16.6911 6.10904 16.6911 7.92383C16.6911 9.73863 15.5124 11.2098 14.0584 11.2098C12.6044 11.2098 11.4258 9.73863 11.4258 7.92383C11.4258 6.10904 12.6044 4.63782 14.0584 4.63782Z" fill="url(#paint10_radial_356_276)"/>
</g>
<defs>
<linearGradient id="paint0_linear_356_276" x1="26.3884" y1="13.5304" x2="23.289" y2="18.261" gradientUnits="userSpaceOnUse">
<stop stop-color="#ACC5FD"/>
<stop offset="0.5" stop-color="#7295DB"/>
<stop offset="1" stop-color="#3966B8"/>
</linearGradient>
<radialGradient id="paint1_radial_356_276" cx="0" cy="0" r="1" gradientUnits="userSpaceOnUse" gradientTransform="translate(24.718 12.4949) scale(4.73864 4.81728)">
<stop stop-color="#E2E9FA"/>
<stop offset="0.17" stop-color="#DCE6FC" stop-opacity="0.835"/>
<stop offset="0.33" stop-color="#D6E3FF" stop-opacity="0.67"/>
<stop offset="0.67" stop-color="#B0C6F4" stop-opacity="0.335"/>
<stop offset="1" stop-color="#8BA9E8" stop-opacity="0"/>
</radialGradient>
<radialGradient id="paint2_radial_356_276" cx="0" cy="0" r="1" gradientUnits="userSpaceOnUse" gradientTransform="translate(11.7603 4.50094) scale(13.3624 13.5842)">
<stop stop-color="#0060D3"/>
<stop offset="0.14" stop-color="#0055C4"/>
<stop offset="0.27" stop-color="#004BB4"/>
<stop offset="0.63" stop-color="#003695"/>
<stop offset="1" stop-color="#002176"/>
</radialGradient>
<linearGradient id="paint3_linear_356_276" x1="15.1838" y1="24.548" x2="14.3838" y2="6.94586" gradientUnits="userSpaceOnUse">
<stop stop-color="#2667C5"/>
<stop offset="0.5" stop-color="#749DDE"/>
<stop offset="1" stop-color="#C2D2F6"/>
</linearGradient>
<radialGradient id="paint4_radial_356_276" cx="0" cy="0" r="1" gradientUnits="userSpaceOnUse" gradientTransform="translate(17.0993 19.5777) scale(1.94935 1.9817)">
<stop stop-color="#D7E2FF"/>
<stop offset="0.5" stop-color="#6C91DF"/>
<stop offset="1" stop-color="#0040BF"/>
</radialGradient>
<linearGradient id="paint5_linear_356_276" x1="6.34256" y1="11.418" x2="22.803" y2="11.6318" gradientUnits="userSpaceOnUse">
<stop stop-color="#E6EEFF"/>
<stop offset="0.1" stop-color="#D4E0FA"/>
<stop offset="0.2" stop-color="#C2D2F6"/>
<stop offset="0.35" stop-color="#DFE7FA"/>
<stop offset="0.5" stop-color="#FCFCFE"/>
<stop offset="0.65" stop-color="#FDFDFE"/>
<stop offset="0.8" stop-color="white"/>
<stop offset="0.9" stop-color="#F0F4FE"/>
<stop offset="1" stop-color="#E1E9FE"/>
</linearGradient>
<radialGradient id="paint6_radial_356_276" cx="0" cy="0" r="1" gradientUnits="userSpaceOnUse" gradientTransform="translate(7.03477 15.1458) scale(3.23234 3.28598)">
<stop stop-color="#00449B"/>
<stop offset="0.5" stop-color="#3B72BE" stop-opacity="0.5"/>
<stop offset="1" stop-color="#77A0E2" stop-opacity="0"/>
</radialGradient>
<radialGradient id="paint7_radial_356_276" cx="0" cy="0" r="1" gradientUnits="userSpaceOnUse" gradientTransform="translate(19.9045 7.8289) scale(2.25356 2.60288)">
<stop stop-color="white"/>
<stop offset="0.27" stop-color="white" stop-opacity="0.645"/>
<stop offset="0.54" stop-color="white" stop-opacity="0.29"/>
<stop offset="0.77" stop-color="white" stop-opacity="0.145"/>
<stop offset="1" stop-color="white" stop-opacity="0"/>
</radialGradient>
<linearGradient id="paint8_linear_356_276" x1="2.55456" y1="13.5304" x2="5.57501" y2="18.1055" gradientUnits="userSpaceOnUse">
<stop stop-color="#ACC5FD"/>
<stop offset="0.5" stop-color="#7295DB"/>
<stop offset="1" stop-color="#3966B8"/>
</linearGradient>
<radialGradient id="paint9_radial_356_276" cx="0" cy="0" r="1" gradientUnits="userSpaceOnUse" gradientTransform="translate(4.55098 12.6605) scale(4.63038 4.70722)">
<stop stop-color="#E2E9FA"/>
<stop offset="0.17" stop-color="#DCE6FC" stop-opacity="0.835"/>
<stop offset="0.33" stop-color="#D6E3FF" stop-opacity="0.67"/>
<stop offset="0.67" stop-color="#B0C6F4" stop-opacity="0.335"/>
<stop offset="1" stop-color="#8BA9E8" stop-opacity="0"/>
</radialGradient>
<radialGradient id="paint10_radial_356_276" cx="0" cy="0" r="1" gradientUnits="userSpaceOnUse" gradientTransform="translate(14.0133 7.84087) scale(2.60465 2.64787)">
<stop stop-color="white"/>
<stop offset="0.27" stop-color="white" stop-opacity="0.645"/>
<stop offset="0.54" stop-color="white" stop-opacity="0.29"/>
<stop offset="0.77" stop-color="white" stop-opacity="0.145"/>
<stop offset="1" stop-color="white" stop-opacity="0"/>
</radialGradient>
</defs>
</svg>
