<svg width="109" height="27" viewBox="0 0 109 27" fill="none" xmlns="http://www.w3.org/2000/svg">
<path d="M11.889 11.669H4.273V26H0.0740001V8.558H11.889V11.669ZM21.5381 8.286C22.8301 8.286 24.0031 8.49567 25.0571 8.915C26.1224 9.33433 27.0291 9.92933 27.7771 10.7C28.5364 11.4707 29.1201 12.4113 29.5281 13.522C29.9361 14.6327 30.1401 15.8737 30.1401 17.245C30.1401 18.6277 29.9361 19.8743 29.5281 20.985C29.1201 22.0957 28.5364 23.042 27.7771 23.824C27.0291 24.606 26.1224 25.2067 25.0571 25.626C24.0031 26.0453 22.8301 26.255 21.5381 26.255C20.2348 26.255 19.0504 26.0453 17.9851 25.626C16.9198 25.2067 16.0074 24.606 15.2481 23.824C14.5001 23.042 13.9164 22.0957 13.4971 20.985C13.0891 19.8743 12.8851 18.6277 12.8851 17.245C12.8851 15.8737 13.0891 14.6327 13.4971 13.522C13.9164 12.4113 14.5001 11.4707 15.2481 10.7C16.0074 9.92933 16.9198 9.33433 17.9851 8.915C19.0504 8.49567 20.2348 8.286 21.5381 8.286ZM21.5381 23.025C22.9888 23.025 24.0598 22.5377 24.7511 21.563C25.4538 20.5883 25.8051 19.1603 25.8051 17.279C25.8051 15.3977 25.4538 13.964 24.7511 12.978C24.0598 11.992 22.9888 11.499 21.5381 11.499C20.0648 11.499 18.9711 11.9977 18.2571 12.995C17.5544 13.981 17.2031 15.409 17.2031 17.279C17.2031 19.149 17.5544 20.577 18.2571 21.563C18.9711 22.5377 20.0648 23.025 21.5381 23.025ZM45.8385 12.247C45.7139 12.4057 45.5892 12.5303 45.4645 12.621C45.3512 12.7117 45.1812 12.757 44.9545 12.757C44.7392 12.757 44.5295 12.6947 44.3255 12.57C44.1215 12.434 43.8779 12.2867 43.5945 12.128C43.3112 11.958 42.9712 11.8107 42.5745 11.686C42.1892 11.55 41.7075 11.482 41.1295 11.482C40.3929 11.482 39.7469 11.618 39.1915 11.89C38.6362 12.1507 38.1715 12.5303 37.7975 13.029C37.4349 13.5277 37.1629 14.134 36.9815 14.848C36.8002 15.5507 36.7095 16.3497 36.7095 17.245C36.7095 18.1743 36.8059 19.0017 36.9985 19.727C37.2025 20.4523 37.4915 21.0643 37.8655 21.563C38.2395 22.0503 38.6929 22.4243 39.2255 22.685C39.7582 22.9343 40.3589 23.059 41.0275 23.059C41.6962 23.059 42.2345 22.9797 42.6425 22.821C43.0619 22.651 43.4132 22.4697 43.6965 22.277C43.9799 22.073 44.2235 21.8917 44.4275 21.733C44.6429 21.563 44.8809 21.478 45.1415 21.478C45.4815 21.478 45.7365 21.6083 45.9065 21.869L47.1135 23.399C46.6489 23.943 46.1445 24.402 45.6005 24.776C45.0565 25.1387 44.4899 25.4333 43.9005 25.66C43.3225 25.8753 42.7219 26.0283 42.0985 26.119C41.4865 26.2097 40.8745 26.255 40.2625 26.255C39.1859 26.255 38.1715 26.0567 37.2195 25.66C36.2675 25.252 35.4345 24.6627 34.7205 23.892C34.0065 23.1213 33.4399 22.1807 33.0205 21.07C32.6125 19.948 32.4085 18.673 32.4085 17.245C32.4085 15.9643 32.5899 14.78 32.9525 13.692C33.3265 12.5927 33.8705 11.6463 34.5845 10.853C35.2985 10.0483 36.1825 9.41933 37.2365 8.966C38.2905 8.51267 39.5032 8.286 40.8745 8.286C42.1779 8.286 43.3169 8.49567 44.2915 8.915C45.2775 9.33433 46.1615 9.935 46.9435 10.717L45.8385 12.247Z" fill="#0065B1"/>
<path d="M74.6509 8.558L69.1089 26H65.7429C65.3575 26 65.0912 25.7507 64.9439 25.252L61.8159 15.171C61.7139 14.831 61.6175 14.4967 61.5269 14.168C61.4475 13.828 61.3795 13.488 61.3229 13.148C61.2549 13.488 61.1755 13.8337 61.0849 14.185C61.0055 14.525 60.9149 14.865 60.8129 15.205L57.6339 25.252C57.4979 25.7507 57.1975 26 56.7329 26H53.5029L47.9779 8.558H51.3269C51.6329 8.558 51.8935 8.63167 52.1089 8.779C52.3242 8.92633 52.4659 9.11333 52.5339 9.34L55.0329 18.656C55.1575 19.166 55.2652 19.6647 55.3559 20.152C55.4579 20.6393 55.5429 21.1267 55.6109 21.614C55.7355 21.1267 55.8659 20.6393 56.0019 20.152C56.1492 19.6647 56.3022 19.166 56.4609 18.656L59.3509 9.306C59.4189 9.07933 59.5492 8.89233 59.7419 8.745C59.9459 8.59767 60.1895 8.524 60.4729 8.524H62.3259C62.6205 8.524 62.8699 8.59767 63.0739 8.745C63.2892 8.89233 63.4309 9.07933 63.4989 9.306L66.3039 18.656C66.4512 19.166 66.5872 19.6703 66.7119 20.169C66.8479 20.6563 66.9782 21.1437 67.1029 21.631C67.2502 20.6677 67.4599 19.676 67.7319 18.656L70.2989 9.34C70.3782 9.11333 70.5199 8.92633 70.7239 8.779C70.9279 8.63167 71.1715 8.558 71.4549 8.558H74.6509ZM81.3908 8.558V26H77.1748V8.558H81.3908ZM81.9688 3.475C81.9688 3.83767 81.8952 4.17766 81.7478 4.495C81.6005 4.81233 81.4022 5.09 81.1528 5.328C80.9148 5.566 80.6315 5.75867 80.3028 5.906C79.9742 6.042 79.6228 6.11 79.2488 6.11C78.8862 6.11 78.5405 6.042 78.2118 5.906C77.8945 5.75867 77.6168 5.566 77.3788 5.328C77.1408 5.09 76.9482 4.81233 76.8008 4.495C76.6648 4.17766 76.5968 3.83767 76.5968 3.475C76.5968 3.101 76.6648 2.74967 76.8008 2.421C76.9482 2.09233 77.1408 1.809 77.3788 1.571C77.6168 1.333 77.8945 1.146 78.2118 1.01C78.5405 0.862666 78.8862 0.788999 79.2488 0.788999C79.6228 0.788999 79.9742 0.862666 80.3028 1.01C80.6315 1.146 80.9148 1.333 81.1528 1.571C81.4022 1.809 81.6005 2.09233 81.7478 2.421C81.8952 2.74967 81.9688 3.101 81.9688 3.475ZM89.8707 0.737999V15.205H90.6527C90.936 15.205 91.157 15.171 91.3157 15.103C91.4857 15.0237 91.6557 14.8707 91.8257 14.644L96.1607 9.289C96.342 9.051 96.5403 8.86967 96.7557 8.745C96.9823 8.62033 97.2713 8.558 97.6227 8.558H101.465L96.0417 15.035C95.6563 15.545 95.237 15.936 94.7837 16.208C95.0217 16.378 95.2313 16.5763 95.4127 16.803C95.6053 17.0297 95.7867 17.2733 95.9567 17.534L101.771 26H97.9797C97.651 26 97.3677 25.949 97.1297 25.847C96.8917 25.7337 96.6933 25.5353 96.5347 25.252L92.0807 18.639C91.922 18.3783 91.7577 18.2083 91.5877 18.129C91.4177 18.0497 91.1627 18.01 90.8227 18.01H89.8707V26H85.6717V0.737999H89.8707ZM108.186 8.558V26H103.97V8.558H108.186ZM108.764 3.475C108.764 3.83767 108.69 4.17766 108.543 4.495C108.395 4.81233 108.197 5.09 107.948 5.328C107.71 5.566 107.426 5.75867 107.098 5.906C106.769 6.042 106.418 6.11 106.044 6.11C105.681 6.11 105.335 6.042 105.007 5.906C104.689 5.75867 104.412 5.566 104.174 5.328C103.936 5.09 103.743 4.81233 103.596 4.495C103.46 4.17766 103.392 3.83767 103.392 3.475C103.392 3.101 103.46 2.74967 103.596 2.421C103.743 2.09233 103.936 1.809 104.174 1.571C104.412 1.333 104.689 1.146 105.007 1.01C105.335 0.862666 105.681 0.788999 106.044 0.788999C106.418 0.788999 106.769 0.862666 107.098 1.01C107.426 1.146 107.71 1.333 107.948 1.571C108.197 1.809 108.395 2.09233 108.543 2.421C108.69 2.74967 108.764 3.101 108.764 3.475Z" fill="#EE3F58"/>
</svg>
