<svg width="34" height="36" viewBox="0 0 34 36" fill="none" xmlns="http://www.w3.org/2000/svg">
<path d="M30.6087 6.59261C32.0889 7.70591 33.4874 10.0997 33.6858 11.9282L33.6875 11.9444C33.7059 12.1113 34 14.8306 34 17.9809C34 21.1578 33.7078 23.8353 33.6877 24.0158L33.6855 24.0358C33.4857 25.8702 32.118 28.2723 30.5939 29.3803L30.5917 29.3819C30.5548 29.4085 28.2971 31.04 25.5 32.6716C22.8306 34.2074 20.4343 35.2763 20.1275 35.4116C20.105 35.4216 20.0835 35.4313 20.061 35.4415C19.2412 35.8139 18.1206 36 17 36C15.9105 36 14.7823 35.8112 13.9227 35.4337L13.89 35.4194C13.6722 35.3251 11.1933 34.2426 8.5 32.6716C5.81428 31.1051 3.62589 29.5385 3.42317 29.3926C3.41187 29.3844 3.40242 29.3775 3.3913 29.3691C1.9111 28.2558 0.51259 25.8621 0.314229 24.0335L0.312465 24.0174C0.294077 23.8505 0 21.131 0 17.9809C0 14.8039 0.292173 12.1264 0.312277 11.9459L0.314473 11.926C0.513673 10.097 1.87396 7.70355 3.39266 6.59132C3.40286 6.58384 3.41141 6.57771 3.42174 6.57045C3.61544 6.4341 5.80788 4.89868 8.5 3.32837C11.1694 1.79266 13.5657 0.723713 13.8725 0.588392C13.895 0.578441 13.9165 0.568671 13.939 0.558471C14.7588 0.186157 15.8794 0 17 0C18.0895 0 19.2176 0.188759 20.0773 0.566274L20.11 0.580556C20.3278 0.674882 22.8067 1.75741 25.5 3.32837C28.1857 4.8585 30.3741 6.42336 30.5768 6.56916C30.5881 6.57731 30.5976 6.58423 30.6087 6.59261Z" fill="#0065B1"/>
</svg>
