<svg width="3" height="4" viewBox="0 0 3 4" fill="none" xmlns="http://www.w3.org/2000/svg">
<path opacity="0.9" d="M-0.00099992 2.01C-0.00099992 1.854 0.0260001 1.707 0.08 1.569C0.14 1.431 0.218 1.311 0.314 1.209C0.416 1.107 0.536 1.026 0.674 0.966C0.812 0.906 0.959 0.876 1.115 0.876C1.271 0.876 1.418 0.906 1.556 0.966C1.694 1.026 1.814 1.107 1.916 1.209C2.018 1.311 2.099 1.431 2.159 1.569C2.219 1.707 2.249 1.854 2.249 2.01C2.249 2.172 2.219 2.322 2.159 2.46C2.099 2.592 2.018 2.709 1.916 2.811C1.814 2.913 1.694 2.991 1.556 3.045C1.418 3.105 1.271 3.135 1.115 3.135C0.959 3.135 0.812 3.105 0.674 3.045C0.536 2.991 0.416 2.913 0.314 2.811C0.218 2.709 0.14 2.592 0.08 2.46C0.0260001 2.322 -0.00099992 2.172 -0.00099992 2.01Z" fill="#0065B1"/>
</svg>
