<svg width="25" height="4" viewBox="0 0 25 4" fill="none" xmlns="http://www.w3.org/2000/svg">
<path opacity="0.9" d="M0.369937 2.01C0.369937 1.854 0.396937 1.707 0.450937 1.569C0.510937 1.431 0.588937 1.311 0.684937 1.209C0.786937 1.107 0.906937 1.026 1.04494 0.966C1.18294 0.906 1.32994 0.876 1.48594 0.876C1.64194 0.876 1.78894 0.906 1.92694 0.966C2.06494 1.026 2.18494 1.107 2.28694 1.209C2.38894 1.311 2.46994 1.431 2.52994 1.569C2.58994 1.707 2.61994 1.854 2.61994 2.01C2.61994 2.172 2.58994 2.322 2.52994 2.46C2.46994 2.592 2.38894 2.709 2.28694 2.811C2.18494 2.913 2.06494 2.991 1.92694 3.045C1.78894 3.105 1.64194 3.135 1.48594 3.135C1.32994 3.135 1.18294 3.105 1.04494 3.045C0.906937 2.991 0.786937 2.913 0.684937 2.811C0.588937 2.709 0.510937 2.592 0.450937 2.46C0.396937 2.322 0.369937 2.172 0.369937 2.01ZM11.3893 2.01C11.3893 1.854 11.4163 1.707 11.4703 1.569C11.5303 1.431 11.6083 1.311 11.7043 1.209C11.8063 1.107 11.9263 1.026 12.0643 0.966C12.2023 0.906 12.3493 0.876 12.5053 0.876C12.6613 0.876 12.8083 0.906 12.9463 0.966C13.0843 1.026 13.2043 1.107 13.3063 1.209C13.4083 1.311 13.4893 1.431 13.5493 1.569C13.6093 1.707 13.6393 1.854 13.6393 2.01C13.6393 2.172 13.6093 2.322 13.5493 2.46C13.4893 2.592 13.4083 2.709 13.3063 2.811C13.2043 2.913 13.0843 2.991 12.9463 3.045C12.8083 3.105 12.6613 3.135 12.5053 3.135C12.3493 3.135 12.2023 3.105 12.0643 3.045C11.9263 2.991 11.8063 2.913 11.7043 2.811C11.6083 2.709 11.5303 2.592 11.4703 2.46C11.4163 2.322 11.3893 2.172 11.3893 2.01ZM22.4087 2.01C22.4087 1.854 22.4357 1.707 22.4897 1.569C22.5497 1.431 22.6277 1.311 22.7237 1.209C22.8257 1.107 22.9457 1.026 23.0837 0.966C23.2217 0.906 23.3687 0.876 23.5247 0.876C23.6807 0.876 23.8277 0.906 23.9657 0.966C24.1037 1.026 24.2237 1.107 24.3257 1.209C24.4277 1.311 24.5087 1.431 24.5687 1.569C24.6287 1.707 24.6587 1.854 24.6587 2.01C24.6587 2.172 24.6287 2.322 24.5687 2.46C24.5087 2.592 24.4277 2.709 24.3257 2.811C24.2237 2.913 24.1037 2.991 23.9657 3.045C23.8277 3.105 23.6807 3.135 23.5247 3.135C23.3687 3.135 23.2217 3.105 23.0837 3.045C22.9457 2.991 22.8257 2.913 22.7237 2.811C22.6277 2.709 22.5497 2.592 22.4897 2.46C22.4357 2.322 22.4087 2.172 22.4087 2.01Z" fill="#0065B1"/>
</svg>
