<svg width="16" height="15" viewBox="0 0 16 15" fill="none" xmlns="http://www.w3.org/2000/svg">
<path d="M10.2522 6.32401C10.0401 6.26705 9.67414 6.20765 9.43178 6.18381L9.43121 6.18376C9.17356 6.1596 7.82083 6.14413 6.22237 6.14413C5.4619 6.14413 4.77064 6.14706 4.26933 6.15195C4.01876 6.15439 3.81521 6.15733 3.67407 6.16065C3.60367 6.16231 3.54788 6.16407 3.50928 6.16597C3.49032 6.1669 3.47368 6.16795 3.46097 6.16922C3.45526 6.16979 3.44671 6.17074 3.43809 6.17247C3.43475 6.17314 3.42482 6.17516 3.41335 6.17977C3.40825 6.18182 3.39501 6.18739 3.38093 6.19872C3.36877 6.20849 3.33404 6.24065 3.33404 6.29649C3.33404 6.32491 3.34398 6.34601 3.34599 6.35027L3.34616 6.35064C3.34965 6.35813 3.35322 6.36394 3.35523 6.36709C3.35942 6.37366 3.36379 6.37942 3.3668 6.38327C3.37321 6.39148 3.38128 6.40094 3.38986 6.41068C3.40739 6.4306 3.43233 6.45768 3.46324 6.49057C3.52533 6.55661 3.61462 6.64934 3.72419 6.76185C3.94351 6.98704 4.24578 7.29322 4.57813 7.62753L4.57823 7.62762C5.11444 8.16579 5.41483 8.47209 5.58863 8.66514C5.76224 8.85799 5.79781 8.92558 5.81859 8.98639C5.85018 9.08134 5.87458 9.22787 5.87458 9.29823C5.87458 9.36563 5.84766 9.50671 5.81477 9.60977C5.78183 9.70059 5.69527 9.83616 5.61806 9.91338C5.54084 9.9906 5.40525 10.0772 5.31443 10.1101C5.21138 10.143 5.0703 10.1699 5.00291 10.1699C4.93306 10.1699 4.79004 10.1457 4.68962 10.1134C4.63096 10.0943 4.55386 10.052 4.23513 9.75154C3.92168 9.45607 3.38977 8.92711 2.42569 7.96303L2.42545 7.96279C1.67711 7.21836 1.13948 6.67584 0.779873 6.30259C0.599985 6.11587 0.465396 5.97229 0.371521 5.86736C0.273294 5.75756 0.22948 5.7006 0.219297 5.68184L0.218966 5.68124C0.178513 5.60769 0.156778 5.55691 0.143845 5.50442C0.130737 5.45122 0.125 5.38946 0.125 5.292C0.125 5.12267 0.145998 5.0252 0.197891 4.91778C0.198393 4.91687 0.200861 4.91255 0.206929 4.90387C0.213422 4.89458 0.222483 4.8825 0.234596 4.86728C0.258836 4.83682 0.292929 4.79675 0.338091 4.746C0.428305 4.64462 0.559303 4.5044 0.736529 4.31986C1.09079 3.95098 1.62648 3.40845 2.38269 2.65223C3.36635 1.67053 3.89916 1.14067 4.21356 0.844732C4.52866 0.54814 4.61215 0.498954 4.69781 0.463677C4.76014 0.439142 4.82454 0.415851 4.87772 0.398891C4.90452 0.390343 4.92719 0.383813 4.94463 0.379553C4.95699 0.376533 4.96343 0.375497 4.96541 0.375152C4.96845 0.375444 4.97587 0.376276 4.98884 0.378575C5.0055 0.381531 5.02665 0.386049 5.05108 0.391985C5.09991 0.40385 5.15813 0.420472 5.21353 0.438939L5.21353 0.438945L5.21468 0.439317C5.31891 0.47294 5.46804 0.557914 5.55718 0.636764L5.55742 0.636978C5.60042 0.67482 5.64765 0.724556 5.68823 0.773693C5.73027 0.824613 5.7585 0.86687 5.76936 0.889789L5.76926 0.889837L5.77171 0.894497C5.80294 0.953827 5.84254 1.08077 5.85661 1.16871L5.85664 1.16886C5.87242 1.26672 5.86428 1.37632 5.82099 1.52424L5.82097 1.52424L5.82031 1.52664C5.80643 1.57783 5.79793 1.60762 5.75966 1.66442C5.71674 1.72815 5.63777 1.82292 5.47788 1.99378C5.15962 2.33391 4.54215 2.95336 3.31189 4.18753L3.09932 4.40078H3.40042H6.31227C8.0777 4.40078 9.37813 4.41655 9.62226 4.43926C9.84432 4.46227 10.1911 4.51617 10.3915 4.55465C10.5917 4.59706 10.9224 4.68177 11.12 4.74636C11.3148 4.81005 11.7424 4.9946 12.0605 5.15365L12.0605 5.15367L12.0622 5.15446C12.3818 5.30851 12.8053 5.5552 13.0015 5.6948C13.1969 5.83379 13.5783 6.16849 13.8455 6.43569C14.1122 6.70237 14.4432 7.08392 14.5825 7.27964C14.7227 7.4767 14.9618 7.87736 15.1083 8.16265C15.2507 8.44763 15.4354 8.88261 15.5152 9.12197C15.5922 9.36445 15.6885 9.7228 15.7307 9.91069C15.7685 10.0963 15.8186 10.4689 15.8458 10.7365C15.8686 11.0042 15.8804 11.7325 15.8726 12.3845L15.8726 12.3846C15.8667 12.9398 15.8628 13.2301 15.8509 13.4008C15.845 13.4855 15.8375 13.5347 15.8287 13.5691C15.8205 13.6009 15.8105 13.6237 15.7936 13.6558C15.7543 13.7274 15.6512 13.8563 15.5632 13.9337L15.563 13.9339C15.4739 14.0128 15.3247 14.0977 15.2205 14.1314L15.2193 14.1317C15.1636 14.1503 15.106 14.167 15.0588 14.179C15.0351 14.1849 15.015 14.1895 14.9996 14.1924C14.9901 14.1942 14.9844 14.195 14.9818 14.1954C14.9792 14.195 14.9733 14.194 14.9632 14.1918C14.9469 14.1882 14.9257 14.1827 14.9008 14.1753C14.851 14.1607 14.7908 14.1404 14.7334 14.1181L14.7321 14.1177C14.618 14.0749 14.4699 13.989 14.4094 13.9356C14.3466 13.8755 14.2569 13.7504 14.2216 13.6638L14.2217 13.6638L14.2196 13.659C14.1865 13.5867 14.1674 13.5351 14.1544 13.3345C14.141 13.1274 14.1351 12.7768 14.1253 12.1105L14.1253 12.1103C14.1059 10.9191 14.0944 10.6393 14.025 10.3083L14.0249 10.3081C13.9812 10.1017 13.9058 9.81546 13.857 9.6691C13.8085 9.52349 13.7129 9.28468 13.6409 9.1286C13.5674 8.96935 13.4118 8.69451 13.2927 8.5079L13.2927 8.50789L13.2917 8.50633C13.1677 8.31837 12.9615 8.04471 12.8294 7.88859L12.8294 7.88858L12.8282 7.88719C12.6913 7.73014 12.4638 7.50655 12.3176 7.38474L12.3176 7.38473L12.3163 7.38367C12.1682 7.26362 11.8949 7.06554 11.7027 6.94532C11.5093 6.8205 11.1911 6.65335 10.9921 6.57201C10.7943 6.48737 10.4613 6.37637 10.2522 6.32401ZM10.2522 6.32401C10.2525 6.32411 10.2529 6.32421 10.2533 6.32431L10.2208 6.44501L10.2511 6.32374C10.2515 6.32383 10.2518 6.32392 10.2522 6.32401Z" fill="#0065B1" stroke="white" stroke-width="0.25"/>
</svg>
