<svg width="28" height="28" viewBox="0 0 28 28" fill="none" xmlns="http://www.w3.org/2000/svg">
<path opacity="0.5" d="M3.96784 2.75786C4.23485 2.52634 4.61493 2.47818 4.93125 2.63577L26.168 13.2163C26.4651 13.3643 26.6528 13.6676 26.6528 13.9994C26.6529 14.3313 26.4651 14.6346 26.1681 14.7826L4.93128 25.3643C4.61496 25.5219 4.23489 25.4737 3.96786 25.2422C3.70084 25.0107 3.5993 24.6413 3.71048 24.3058L6.45739 16.0176C6.56348 15.6975 6.84408 15.4669 7.17866 15.4247L13.5793 14.6189C13.8912 14.5797 14.1251 14.3144 14.1251 14.0001C14.1251 13.6857 13.8912 13.4205 13.5793 13.3812L7.17902 12.5755C6.84444 12.5333 6.56384 12.3027 6.45775 11.9826L3.71049 3.69425C3.5993 3.35879 3.70083 2.98938 3.96784 2.75786Z" fill="url(#paint0_linear_46_1439)"/>
<defs>
<linearGradient id="paint0_linear_46_1439" x1="3.66602" y1="14" x2="26.6528" y2="14" gradientUnits="userSpaceOnUse">
<stop offset="0.469961" stop-color="#1349BE"/>
<stop offset="1" stop-color="#1853D4"/>
</linearGradient>
</defs>
</svg>
