<svg width="16" height="16" viewBox="0 0 16 16" fill="none" xmlns="http://www.w3.org/2000/svg">
<path fill-rule="evenodd" clip-rule="evenodd" d="M6.64 0C2.96 0 0 2.88 0 6.48C0 10.08 2.96 12.96 6.64 12.96C8 12.96 9.36 12.56 10.48 11.76L10.56 11.68L14.64 15.76C14.96 16.08 15.44 16.08 15.76 15.76C15.92 15.6 16 15.44 16 15.2C16 14.96 15.92 14.8 15.76 14.64L11.68 10.56L11.76 10.48C12.8 9.36 13.36 7.84 13.36 6.32C13.36 2.88 10.32 0 6.64 0ZM6.64 11.36C3.84 11.36 1.6 9.2 1.6 6.48C1.6 3.76 3.92 1.52 6.72 1.52C9.52 1.52 11.84 3.76 11.84 6.48C11.84 9.2 9.52 11.36 6.64 11.36Z" fill="#0065B1"/>
</svg>
