<svg width="22" height="22" viewBox="0 0 22 22" fill="none" xmlns="http://www.w3.org/2000/svg">
<g clip-path="url(#clip0_46_1284)">
<path d="M20.0505 10.1711L20.301 10.3701L20.2634 10.0144C20.0726 8.21019 19.3567 6.50165 18.2043 5.10041L18.0992 4.97272L17.9823 5.08963L15.1682 7.90378L15.0511 8.02084L15.1791 8.12583C16.57 9.26649 18.2628 9.97704 20.0505 10.1711ZM16.8948 4.00451L17.0116 3.88741L16.8837 3.78258C15.4834 2.63488 13.7777 1.92232 11.9771 1.73277L11.7932 1.7134L11.8122 1.89738C11.9989 3.70129 12.7118 5.4105 13.8621 6.81249L13.9673 6.94064L14.0843 6.82326L16.8948 4.00451ZM10.2812 1.86467L10.2684 1.71376L10.1176 1.72801C8.27962 1.90175 6.53519 2.61998 5.10772 3.79087L4.97973 3.89585L5.09678 4.01291L10.8938 9.80991L10.9998 9.91598L11.1059 9.80991L12.7889 8.12691L12.8865 8.02929L12.7973 7.92392C11.3499 6.21433 10.4706 4.09663 10.2812 1.86467ZM3.99541 5.0819L3.89649 5.19279L3.80063 5.09693C3.79605 5.10151 3.79251 5.10564 3.79002 5.1087L3.78976 5.10904C2.61979 6.53639 1.90217 8.28036 1.7288 10.1178L1.71458 10.2686L1.86546 10.2814C4.09706 10.4706 6.21426 11.3504 7.92281 12.7983L8.02819 12.8876L8.12586 12.79L9.80976 11.1061L9.91584 11L9.80975 10.8939L4.11836 5.20346L4.13166 5.19016L4.00001 5.08555L3.99541 5.0819ZM1.73545 11.9698V11.9778L1.73628 11.9857C1.92719 13.7867 2.64141 15.4924 3.79077 16.8922L3.89577 17.0201L4.01276 16.9031L6.82691 14.0889L6.94395 13.9719L6.816 13.8669C5.41401 12.7165 3.70479 12.0037 1.90089 11.817L1.73545 11.7999V11.9662V11.9698ZM5.10036 17.9872L4.98352 18.1041L5.11131 18.2091C6.51106 19.3584 8.2168 20.0727 10.0178 20.2636L10.2019 20.2831L10.1829 20.099C9.99618 18.2951 9.28333 16.5858 8.13296 15.1839L8.0279 15.0558L7.91087 15.173L5.10036 17.9872ZM11.7185 20.1353L11.7313 20.2862L11.882 20.272C13.7202 20.0987 15.4647 19.3804 16.892 18.2091L17.0199 18.1041L16.9029 17.9871L11.1059 12.1901L10.9998 12.084L10.8938 12.1901L9.20988 13.874L9.11221 13.9717L9.20151 14.077C10.6496 15.7858 11.5294 17.9034 11.7185 20.1353ZM17.9851 16.903L18.1022 17.0201L18.2072 16.8921C19.378 15.4647 20.0963 13.7202 20.27 11.8822L20.2842 11.7315L20.1334 11.7186C17.902 11.5289 15.785 10.6496 14.0759 9.20252L13.9706 9.11331L13.8729 9.21093L12.1899 10.8939L12.0839 11L12.1899 11.106L17.9851 16.903ZM0.13584 11.015C0.13584 5.01333 5.00119 0.147978 11.0029 0.147978C17.0045 0.147978 21.8698 5.01333 21.8698 11.015C21.8698 17.0167 17.0045 21.882 11.0029 21.882C5.00119 21.882 0.13584 17.0167 0.13584 11.015Z" fill="#0065B1" stroke="#ECF0FD" stroke-width="0.3"/>
</g>
<defs>
<clipPath id="clip0_46_1284">
<rect width="22" height="22" fill="white"/>
</clipPath>
</defs>
</svg>
