<svg width="7" height="12" viewBox="0 0 7 12" fill="none" xmlns="http://www.w3.org/2000/svg">
<g clip-path="url(#clip0_357_545)">
<path d="M6.43489 6.32951L1.44443 11.456C1.32902 11.5746 1.17493 11.64 1.01064 11.64C0.846345 11.64 0.692263 11.5746 0.576845 11.456L0.209345 11.0785C-0.0298076 10.8326 -0.0298076 10.4328 0.209345 10.1873L4.39994 5.8824L0.204693 1.57272C0.0892749 1.45405 0.0255337 1.29587 0.0255337 1.12719C0.0255337 0.958325 0.0892749 0.800136 0.204693 0.681379L0.572192 0.304032C0.687692 0.185368 0.841692 0.119995 1.00599 0.119995C1.17028 0.119995 1.32436 0.185368 1.43978 0.304032L6.43489 5.43518C6.55058 5.55422 6.61413 5.71315 6.61377 5.88211C6.61413 6.05174 6.55058 6.21057 6.43489 6.32951Z" fill="#0B1F33"/>
</g>
<defs>
<clipPath id="clip0_357_545">
<rect width="7" height="12" fill="white" transform="matrix(-1 0 0 1 7 0)"/>
</clipPath>
</defs>
</svg>
