<svg width="26" height="18" viewBox="0 0 26 18" fill="none" xmlns="http://www.w3.org/2000/svg">
<mask id="path-1-outside-1_46_1336" maskUnits="userSpaceOnUse" x="-6.36603" y="-10.366" width="34.7846" height="36.2487" fill="black">
<rect fill="white" x="-6.36603" y="-10.366" width="34.7846" height="36.2487"/>
<path fill-rule="evenodd" clip-rule="evenodd" d="M24.9552 0.789698C25.1231 0.880753 25.2122 0.967432 25.284 1.11443C25.3424 1.22436 25.3985 1.36822 25.4123 1.43481C25.4235 1.50581 25.444 2.27418 25.4528 3.15313C25.4616 4.24317 25.4448 4.78475 25.3915 4.87712C25.3432 4.96069 25.2601 5.02417 25.1662 5.04618C25.0792 5.06631 24.8641 5.07704 24.6817 5.07144C24.5012 5.07274 24.3311 5.08598 24.3053 5.10043C24.2796 5.11489 24.2607 5.33856 24.2646 5.59301C24.275 5.95678 24.25 6.10066 24.1513 6.30173C24.0602 6.4896 23.9819 6.58512 23.8404 6.6794C23.7367 6.74854 23.5648 6.82523 23.4596 6.84662C23.3563 6.87492 21.8169 6.91867 20.0458 6.95179C18.2704 6.98241 16.7811 7.01986 16.7354 7.02867C16.6647 7.04062 16.6509 7.18513 16.6594 7.75308C16.6615 8.14135 16.6574 8.59057 16.6498 8.7445C16.6396 8.90282 16.5992 9.14346 16.5611 9.27981C16.5248 9.42306 16.4138 9.67566 16.3173 9.8428C16.2081 10.0319 16.0456 10.2431 15.8875 10.3864C15.7482 10.5171 15.5204 10.6905 15.3822 10.7691C15.2459 10.8546 14.955 10.9564 14.7396 11.008C14.481 11.064 13.6096 11.1063 12.1798 11.1312C10.9849 11.151 9.91047 11.1934 9.78898 11.2229C9.66931 11.2594 9.45787 11.3543 9.32404 11.4354C9.14995 11.546 9.02699 11.6686 8.88443 11.8853C8.70449 12.1568 8.63699 12.3642 8.10525 14.2799C7.71834 15.6634 7.473 16.4602 7.38158 16.6185C7.27492 16.8032 7.1759 16.9044 6.9659 17.0471C6.81067 17.1451 6.58546 17.2438 6.46216 17.2665C6.3414 17.2847 5.28144 17.312 4.1098 17.3218C2.93561 17.3359 1.88835 17.3412 1.78283 17.333C1.66353 17.3287 1.48731 17.2621 1.33503 17.1742C1.19145 17.0913 1.02903 16.9506 0.948197 16.8394C0.873523 16.7377 0.778924 16.5599 0.73689 16.4418C0.699207 16.3262 0.664809 16.1245 0.664117 15.9951C0.666692 15.85 1.095 14.244 1.80531 11.7276C2.43105 9.50837 2.95154 7.59201 2.96572 7.47703C2.97808 7.35515 2.95092 7.18112 2.91432 7.08375C2.87083 6.98826 2.79943 6.87079 2.74613 6.82243C2.69538 6.76967 2.49235 6.62899 2.2904 6.50653C2.01521 6.33006 1.88687 6.22077 1.75492 6.0273C1.65995 5.89036 1.55013 5.66861 1.51318 5.5417C1.47876 5.4104 1.44122 4.73188 1.43198 4.0345C1.41838 3.33461 1.42907 2.64288 1.45667 2.4946C1.49045 2.28538 1.55104 2.15029 1.72154 1.88511C1.89386 1.62685 2.00304 1.50808 2.1822 1.38866C2.31603 1.30758 2.55068 1.2026 2.70662 1.1636C2.87634 1.12084 7.21807 1.006 13.8556 0.873607C24.494 0.664163 24.7264 0.663474 24.9508 0.787186L24.9552 0.789698ZM14.2441 1.63748C10.9819 1.70115 7.14607 1.77377 5.70935 1.80052C4.27262 1.82728 2.99943 1.87222 2.87795 1.90178C2.75646 1.93134 2.59761 2.01557 2.5189 2.08155C2.44455 2.15005 2.33681 2.31658 2.27694 2.44036C2.19022 2.63075 2.17385 2.85002 2.18379 3.67682C2.18869 4.37169 2.21761 4.69336 2.27236 4.7191C2.31152 4.74171 6.09915 4.6823 10.6806 4.59442C16.4394 4.4767 19.0678 4.44587 19.1773 4.49736C19.3136 4.55261 19.3469 4.59533 19.3687 4.74862C19.3802 4.84914 19.3798 4.96034 19.3577 4.98862C19.3425 5.01501 19.2801 5.07283 19.2253 5.11745C19.1619 5.15705 18.6154 5.19928 17.7886 5.21458C17.0543 5.23047 14.872 5.2725 12.9359 5.31007C10.9999 5.34763 7.82324 5.41379 5.87594 5.45074C3.01119 5.50928 2.34359 5.54023 2.39108 5.6087C2.41935 5.66021 2.62854 5.81032 2.84971 5.94974C3.15535 6.14379 3.29239 6.2581 3.41455 6.42833C3.49901 6.55334 3.61499 6.78451 3.65919 6.93906C3.71028 7.09171 3.73669 7.34741 3.72903 7.50134C3.71449 7.65715 3.19253 9.59613 2.57115 11.8179C1.94541 14.0371 1.43145 15.922 1.42562 16.0125C1.42234 16.0986 1.45676 16.2299 1.5104 16.3078C1.5597 16.3831 1.65505 16.4792 1.72031 16.5169C1.80297 16.5646 2.61634 16.5827 4.0886 16.5647C5.32842 16.5474 6.3978 16.5138 6.46744 16.4837C6.53707 16.4535 6.63391 16.3862 6.68251 16.3322C6.73112 16.2781 7.02473 15.3275 7.3728 14.0916C7.88239 12.2745 8.00397 11.8931 8.16904 11.6072C8.30363 11.3741 8.44837 11.1937 8.61594 11.0442C8.75268 10.9178 8.94708 10.772 9.04754 10.7186C9.14801 10.6652 9.37503 10.5734 9.55237 10.5174C9.79426 10.4401 10.3988 10.4079 12.1292 10.3748C13.3741 10.3487 14.503 10.3025 14.6451 10.2673C14.7898 10.2277 15.0201 10.1202 15.1616 10.0259C15.381 9.87697 15.4492 9.79905 15.6473 9.45596C15.8301 9.13926 15.8813 9.01045 15.8944 8.80689C15.9057 8.66678 15.9127 8.17233 15.907 7.69987C15.9065 7.00752 15.9232 6.81778 16.007 6.67262C16.0629 6.57586 16.1953 6.44703 16.3102 6.37851C16.4861 6.2748 16.8393 6.25587 19.819 6.19918C21.6445 6.16227 23.1944 6.13046 23.2694 6.12101C23.3488 6.11408 23.433 6.06883 23.4609 6.02044C23.4888 5.97206 23.5121 5.7509 23.5154 5.52409C23.5162 5.30168 23.501 5.11698 23.4767 5.10882C23.4543 5.10756 22.8806 5.11651 22.205 5.13113C21.5251 5.14325 20.8883 5.15095 20.7871 5.14532C20.6672 5.13865 20.574 5.10244 20.5076 5.0367C20.4594 4.97954 20.4115 4.88154 20.4047 4.81306C20.4021 4.7471 20.4268 4.64405 20.4624 4.58247C20.4979 4.52089 20.5948 4.45364 20.6774 4.431C20.7645 4.41088 21.6783 4.37546 22.7107 4.35572C23.7431 4.33597 24.613 4.31627 24.6406 4.30873C24.6725 4.30369 24.6926 3.67604 24.6896 2.91772C24.6826 1.90495 24.6598 1.52234 24.604 1.47837C24.5587 1.44634 23.539 1.44409 22.3459 1.47079C21.146 1.49937 17.502 1.5713 14.2441 1.63748ZM10.0263 2.14056C10.0789 2.20023 10.1173 2.30452 10.1173 2.37488C10.1147 2.44965 10.0094 2.82287 9.88279 3.21306C9.75432 3.59634 9.62223 3.96579 9.5816 4.03617C9.54351 4.10215 9.44413 4.1738 9.35456 4.19832C9.27187 4.22096 9.15257 4.2166 9.09166 4.18143C9.03075 4.14626 8.95969 4.05832 8.92853 3.98168C8.88831 3.87048 8.92425 3.6977 9.15361 3.00906C9.30276 2.54975 9.46714 2.13442 9.51067 2.08918C9.55673 2.03953 9.67133 2.01186 9.76561 2.01937C9.87983 2.03254 9.96323 2.06895 10.0263 2.14056ZM8.51345 2.08818C8.5595 2.1089 8.61677 2.20061 8.64467 2.29296C8.69032 2.42488 8.65076 2.58385 8.42321 3.2794C8.19313 3.97936 8.13253 4.11445 8.03134 4.17919C7.96969 4.2257 7.86198 4.25148 7.79018 4.24522C7.72527 4.23707 7.63861 4.21636 7.60381 4.19626C7.569 4.17617 7.51608 4.08696 7.48999 4.00153C7.45123 3.86771 7.48971 3.69053 7.71145 3.01508C7.93972 2.30822 8.00031 2.17313 8.09715 2.10588C8.16316 2.06188 8.26652 2.03358 8.32707 2.03922C8.38763 2.04486 8.47429 2.06557 8.51345 2.08818ZM14.9816 6.40901C15.0624 6.44983 15.1777 6.55158 15.2313 6.62947C15.2919 6.70548 15.3575 6.84305 15.3723 6.92787C15.3915 7.01519 15.4041 7.48576 15.4091 7.96953C15.4117 8.76869 15.4001 8.87927 15.276 9.12433C15.19 9.30341 15.0794 9.4448 14.9699 9.53404C14.8792 9.61071 14.716 9.69243 14.6126 9.72073C14.5118 9.74463 13.4218 9.78386 12.195 9.80868C10.9708 9.8291 9.87674 9.82499 9.76832 9.79172C9.65736 9.76284 9.5 9.68372 9.41626 9.61778C9.33686 9.55434 9.21686 9.42055 9.15343 9.31941C9.09181 9.22519 9.01245 9.02102 8.97949 8.8671C8.94291 8.69937 8.94804 8.47947 8.99341 8.3004C9.03843 8.0918 9.14873 7.85052 9.34173 7.51623C9.61092 7.04998 9.63305 7.0217 9.96817 6.79292C10.1593 6.66282 10.4531 6.51573 10.621 6.46606C10.8302 6.40506 11.5279 6.36216 12.7659 6.33796C13.7759 6.31697 14.6563 6.3092 14.7212 6.31735C14.7861 6.3255 14.9076 6.36631 14.9816 6.40901ZM11.019 7.15328C11.0132 7.17339 11.0646 7.28521 11.1317 7.40016C11.2154 7.53648 11.3274 7.65393 11.4536 7.72678C11.5972 7.80968 11.7531 7.84105 12.0323 7.84977C12.251 7.85286 12.47 7.88547 12.5309 7.92064C12.5918 7.95581 12.656 8.04563 12.6759 8.12165C12.7013 8.2184 12.6799 8.30573 12.6026 8.41947C12.5101 8.5596 12.4637 8.57971 12.1667 8.60178C11.9828 8.61879 11.713 8.60378 11.5727 8.57555C11.428 8.5448 11.2032 8.46192 11.0727 8.38656C10.9422 8.31121 10.7703 8.1768 10.6924 8.09075C10.6144 8.00469 10.5053 7.842 10.447 7.73207C10.3904 7.62905 10.3226 7.5254 10.3009 7.51284C10.2748 7.49777 10.2233 7.52668 10.1772 7.57632C10.1337 7.62157 10.0361 7.7705 9.95991 7.90245C9.88373 8.03441 9.78793 8.26061 9.75417 8.39947C9.71787 8.54273 9.71311 8.72178 9.73304 8.7978C9.75913 8.88324 9.83453 8.97369 9.91973 9.01702C10.0155 9.07228 10.6783 9.07965 12.1963 9.05287C13.3755 9.02995 14.3844 8.99073 14.4377 8.96873C14.491 8.94673 14.5585 8.88011 14.594 8.81853C14.6296 8.75695 14.654 8.34292 14.6468 7.89308C14.6415 7.45015 14.6293 7.07947 14.6162 7.07194C14.6032 7.0644 13.7927 7.07152 12.8122 7.09188C11.8342 7.10784 11.0291 7.13569 11.019 7.15328ZM7.0343 2.10803C7.09775 2.1388 7.17315 2.22925 7.20432 2.3059C7.24889 2.4196 7.21114 2.58547 7.00028 3.23202C6.85947 3.66682 6.72085 4.06769 6.68783 4.12487C6.65736 4.17766 6.56995 4.23862 6.49416 4.25937C6.41147 4.28201 6.29544 4.26194 6.21277 4.21421C6.12322 4.16837 6.06087 4.08545 6.03986 3.99122C6.01704 3.89007 6.08456 3.61236 6.24025 3.12164C6.3651 2.72454 6.50045 2.33938 6.53674 2.26649C6.57882 2.17349 6.65245 2.1163 6.7627 2.08611C6.85227 2.06159 6.97339 2.07287 7.0343 2.10803ZM5.57436 2.14485C5.64398 2.18504 5.727 2.2623 5.76216 2.31192C5.79478 2.36594 5.79801 2.49097 5.77079 2.59841C5.74175 2.69894 5.61763 3.08473 5.49932 3.45042C5.30517 4.04795 5.2707 4.12775 5.1423 4.22957C5.06178 4.28864 4.949 4.32323 4.88482 4.30377C4.82499 4.28682 4.72927 4.23156 4.66728 4.17817C4.60963 4.1273 4.56868 4.02741 4.57305 3.95956C4.57561 3.88479 4.69429 3.47827 4.83437 3.05478C4.97264 2.62438 5.09784 2.25681 5.10619 2.2323C5.112 2.2122 5.19614 2.16694 5.28644 2.1311C5.39137 2.09003 5.48734 2.09461 5.57436 2.14485ZM8.11958 7.92492C8.21022 7.98898 8.30846 8.11021 8.34398 8.18936C8.37696 8.27291 8.40194 8.4105 8.40047 8.50348C8.40334 8.59898 7.97649 10.1823 7.45601 12.0283C6.93553 13.8743 6.48365 15.4608 6.44846 15.5519C6.40999 15.6587 6.32148 15.7719 6.21449 15.8567C6.12381 15.9334 5.97439 16.0113 5.89424 16.0296C5.80721 16.0497 5.05657 16.0738 4.21854 16.0884C2.73939 16.1083 2.69007 16.1033 2.44824 15.9695C2.21764 15.8364 2.19045 15.8031 2.13684 15.5845C2.07526 15.3495 2.09159 15.271 3.06795 11.8114C3.61057 9.86681 4.08349 8.23381 4.11397 8.18103C4.14698 8.12385 4.22895 8.04215 4.30185 7.99627C4.37729 7.94599 4.50459 7.89632 4.59162 7.87619C4.67431 7.85355 5.43184 7.8276 6.26987 7.81293C7.11043 7.79387 7.83278 7.78866 7.87521 7.79556C7.92017 7.79806 8.02894 7.86086 8.11958 7.92492ZM4.75461 8.63887C4.74445 8.65647 4.32015 10.1651 3.80548 11.9909C3.2585 13.9331 2.89226 15.311 2.92526 15.3242C2.95209 15.3279 3.60191 15.3277 4.36741 15.3181C5.55973 15.3027 5.75736 15.282 5.78313 15.1971C5.79801 15.1412 6.22485 13.6282 6.73734 11.8363C7.24802 10.0374 7.652 8.56399 7.6277 8.55583C7.6103 8.54578 6.9554 8.55475 6.18046 8.57065C5.40299 8.59096 4.76041 8.61877 4.75461 8.63887Z"/>
</mask>
<path fill-rule="evenodd" clip-rule="evenodd" d="M24.9552 0.789698C25.1231 0.880753 25.2122 0.967432 25.284 1.11443C25.3424 1.22436 25.3985 1.36822 25.4123 1.43481C25.4235 1.50581 25.444 2.27418 25.4528 3.15313C25.4616 4.24317 25.4448 4.78475 25.3915 4.87712C25.3432 4.96069 25.2601 5.02417 25.1662 5.04618C25.0792 5.06631 24.8641 5.07704 24.6817 5.07144C24.5012 5.07274 24.3311 5.08598 24.3053 5.10043C24.2796 5.11489 24.2607 5.33856 24.2646 5.59301C24.275 5.95678 24.25 6.10066 24.1513 6.30173C24.0602 6.4896 23.9819 6.58512 23.8404 6.6794C23.7367 6.74854 23.5648 6.82523 23.4596 6.84662C23.3563 6.87492 21.8169 6.91867 20.0458 6.95179C18.2704 6.98241 16.7811 7.01986 16.7354 7.02867C16.6647 7.04062 16.6509 7.18513 16.6594 7.75308C16.6615 8.14135 16.6574 8.59057 16.6498 8.7445C16.6396 8.90282 16.5992 9.14346 16.5611 9.27981C16.5248 9.42306 16.4138 9.67566 16.3173 9.8428C16.2081 10.0319 16.0456 10.2431 15.8875 10.3864C15.7482 10.5171 15.5204 10.6905 15.3822 10.7691C15.2459 10.8546 14.955 10.9564 14.7396 11.008C14.481 11.064 13.6096 11.1063 12.1798 11.1312C10.9849 11.151 9.91047 11.1934 9.78898 11.2229C9.66931 11.2594 9.45787 11.3543 9.32404 11.4354C9.14995 11.546 9.02699 11.6686 8.88443 11.8853C8.70449 12.1568 8.63699 12.3642 8.10525 14.2799C7.71834 15.6634 7.473 16.4602 7.38158 16.6185C7.27492 16.8032 7.1759 16.9044 6.9659 17.0471C6.81067 17.1451 6.58546 17.2438 6.46216 17.2665C6.3414 17.2847 5.28144 17.312 4.1098 17.3218C2.93561 17.3359 1.88835 17.3412 1.78283 17.333C1.66353 17.3287 1.48731 17.2621 1.33503 17.1742C1.19145 17.0913 1.02903 16.9506 0.948197 16.8394C0.873523 16.7377 0.778924 16.5599 0.73689 16.4418C0.699207 16.3262 0.664809 16.1245 0.664117 15.9951C0.666692 15.85 1.095 14.244 1.80531 11.7276C2.43105 9.50837 2.95154 7.59201 2.96572 7.47703C2.97808 7.35515 2.95092 7.18112 2.91432 7.08375C2.87083 6.98826 2.79943 6.87079 2.74613 6.82243C2.69538 6.76967 2.49235 6.62899 2.2904 6.50653C2.01521 6.33006 1.88687 6.22077 1.75492 6.0273C1.65995 5.89036 1.55013 5.66861 1.51318 5.5417C1.47876 5.4104 1.44122 4.73188 1.43198 4.0345C1.41838 3.33461 1.42907 2.64288 1.45667 2.4946C1.49045 2.28538 1.55104 2.15029 1.72154 1.88511C1.89386 1.62685 2.00304 1.50808 2.1822 1.38866C2.31603 1.30758 2.55068 1.2026 2.70662 1.1636C2.87634 1.12084 7.21807 1.006 13.8556 0.873607C24.494 0.664163 24.7264 0.663474 24.9508 0.787186L24.9552 0.789698ZM14.2441 1.63748C10.9819 1.70115 7.14607 1.77377 5.70935 1.80052C4.27262 1.82728 2.99943 1.87222 2.87795 1.90178C2.75646 1.93134 2.59761 2.01557 2.5189 2.08155C2.44455 2.15005 2.33681 2.31658 2.27694 2.44036C2.19022 2.63075 2.17385 2.85002 2.18379 3.67682C2.18869 4.37169 2.21761 4.69336 2.27236 4.7191C2.31152 4.74171 6.09915 4.6823 10.6806 4.59442C16.4394 4.4767 19.0678 4.44587 19.1773 4.49736C19.3136 4.55261 19.3469 4.59533 19.3687 4.74862C19.3802 4.84914 19.3798 4.96034 19.3577 4.98862C19.3425 5.01501 19.2801 5.07283 19.2253 5.11745C19.1619 5.15705 18.6154 5.19928 17.7886 5.21458C17.0543 5.23047 14.872 5.2725 12.9359 5.31007C10.9999 5.34763 7.82324 5.41379 5.87594 5.45074C3.01119 5.50928 2.34359 5.54023 2.39108 5.6087C2.41935 5.66021 2.62854 5.81032 2.84971 5.94974C3.15535 6.14379 3.29239 6.2581 3.41455 6.42833C3.49901 6.55334 3.61499 6.78451 3.65919 6.93906C3.71028 7.09171 3.73669 7.34741 3.72903 7.50134C3.71449 7.65715 3.19253 9.59613 2.57115 11.8179C1.94541 14.0371 1.43145 15.922 1.42562 16.0125C1.42234 16.0986 1.45676 16.2299 1.5104 16.3078C1.5597 16.3831 1.65505 16.4792 1.72031 16.5169C1.80297 16.5646 2.61634 16.5827 4.0886 16.5647C5.32842 16.5474 6.3978 16.5138 6.46744 16.4837C6.53707 16.4535 6.63391 16.3862 6.68251 16.3322C6.73112 16.2781 7.02473 15.3275 7.3728 14.0916C7.88239 12.2745 8.00397 11.8931 8.16904 11.6072C8.30363 11.3741 8.44837 11.1937 8.61594 11.0442C8.75268 10.9178 8.94708 10.772 9.04754 10.7186C9.14801 10.6652 9.37503 10.5734 9.55237 10.5174C9.79426 10.4401 10.3988 10.4079 12.1292 10.3748C13.3741 10.3487 14.503 10.3025 14.6451 10.2673C14.7898 10.2277 15.0201 10.1202 15.1616 10.0259C15.381 9.87697 15.4492 9.79905 15.6473 9.45596C15.8301 9.13926 15.8813 9.01045 15.8944 8.80689C15.9057 8.66678 15.9127 8.17233 15.907 7.69987C15.9065 7.00752 15.9232 6.81778 16.007 6.67262C16.0629 6.57586 16.1953 6.44703 16.3102 6.37851C16.4861 6.2748 16.8393 6.25587 19.819 6.19918C21.6445 6.16227 23.1944 6.13046 23.2694 6.12101C23.3488 6.11408 23.433 6.06883 23.4609 6.02044C23.4888 5.97206 23.5121 5.7509 23.5154 5.52409C23.5162 5.30168 23.501 5.11698 23.4767 5.10882C23.4543 5.10756 22.8806 5.11651 22.205 5.13113C21.5251 5.14325 20.8883 5.15095 20.7871 5.14532C20.6672 5.13865 20.574 5.10244 20.5076 5.0367C20.4594 4.97954 20.4115 4.88154 20.4047 4.81306C20.4021 4.7471 20.4268 4.64405 20.4624 4.58247C20.4979 4.52089 20.5948 4.45364 20.6774 4.431C20.7645 4.41088 21.6783 4.37546 22.7107 4.35572C23.7431 4.33597 24.613 4.31627 24.6406 4.30873C24.6725 4.30369 24.6926 3.67604 24.6896 2.91772C24.6826 1.90495 24.6598 1.52234 24.604 1.47837C24.5587 1.44634 23.539 1.44409 22.3459 1.47079C21.146 1.49937 17.502 1.5713 14.2441 1.63748ZM10.0263 2.14056C10.0789 2.20023 10.1173 2.30452 10.1173 2.37488C10.1147 2.44965 10.0094 2.82287 9.88279 3.21306C9.75432 3.59634 9.62223 3.96579 9.5816 4.03617C9.54351 4.10215 9.44413 4.1738 9.35456 4.19832C9.27187 4.22096 9.15257 4.2166 9.09166 4.18143C9.03075 4.14626 8.95969 4.05832 8.92853 3.98168C8.88831 3.87048 8.92425 3.6977 9.15361 3.00906C9.30276 2.54975 9.46714 2.13442 9.51067 2.08918C9.55673 2.03953 9.67133 2.01186 9.76561 2.01937C9.87983 2.03254 9.96323 2.06895 10.0263 2.14056ZM8.51345 2.08818C8.5595 2.1089 8.61677 2.20061 8.64467 2.29296C8.69032 2.42488 8.65076 2.58385 8.42321 3.2794C8.19313 3.97936 8.13253 4.11445 8.03134 4.17919C7.96969 4.2257 7.86198 4.25148 7.79018 4.24522C7.72527 4.23707 7.63861 4.21636 7.60381 4.19626C7.569 4.17617 7.51608 4.08696 7.48999 4.00153C7.45123 3.86771 7.48971 3.69053 7.71145 3.01508C7.93972 2.30822 8.00031 2.17313 8.09715 2.10588C8.16316 2.06188 8.26652 2.03358 8.32707 2.03922C8.38763 2.04486 8.47429 2.06557 8.51345 2.08818ZM14.9816 6.40901C15.0624 6.44983 15.1777 6.55158 15.2313 6.62947C15.2919 6.70548 15.3575 6.84305 15.3723 6.92787C15.3915 7.01519 15.4041 7.48576 15.4091 7.96953C15.4117 8.76869 15.4001 8.87927 15.276 9.12433C15.19 9.30341 15.0794 9.4448 14.9699 9.53404C14.8792 9.61071 14.716 9.69243 14.6126 9.72073C14.5118 9.74463 13.4218 9.78386 12.195 9.80868C10.9708 9.8291 9.87674 9.82499 9.76832 9.79172C9.65736 9.76284 9.5 9.68372 9.41626 9.61778C9.33686 9.55434 9.21686 9.42055 9.15343 9.31941C9.09181 9.22519 9.01245 9.02102 8.97949 8.8671C8.94291 8.69937 8.94804 8.47947 8.99341 8.3004C9.03843 8.0918 9.14873 7.85052 9.34173 7.51623C9.61092 7.04998 9.63305 7.0217 9.96817 6.79292C10.1593 6.66282 10.4531 6.51573 10.621 6.46606C10.8302 6.40506 11.5279 6.36216 12.7659 6.33796C13.7759 6.31697 14.6563 6.3092 14.7212 6.31735C14.7861 6.3255 14.9076 6.36631 14.9816 6.40901ZM11.019 7.15328C11.0132 7.17339 11.0646 7.28521 11.1317 7.40016C11.2154 7.53648 11.3274 7.65393 11.4536 7.72678C11.5972 7.80968 11.7531 7.84105 12.0323 7.84977C12.251 7.85286 12.47 7.88547 12.5309 7.92064C12.5918 7.95581 12.656 8.04563 12.6759 8.12165C12.7013 8.2184 12.6799 8.30573 12.6026 8.41947C12.5101 8.5596 12.4637 8.57971 12.1667 8.60178C11.9828 8.61879 11.713 8.60378 11.5727 8.57555C11.428 8.5448 11.2032 8.46192 11.0727 8.38656C10.9422 8.31121 10.7703 8.1768 10.6924 8.09075C10.6144 8.00469 10.5053 7.842 10.447 7.73207C10.3904 7.62905 10.3226 7.5254 10.3009 7.51284C10.2748 7.49777 10.2233 7.52668 10.1772 7.57632C10.1337 7.62157 10.0361 7.7705 9.95991 7.90245C9.88373 8.03441 9.78793 8.26061 9.75417 8.39947C9.71787 8.54273 9.71311 8.72178 9.73304 8.7978C9.75913 8.88324 9.83453 8.97369 9.91973 9.01702C10.0155 9.07228 10.6783 9.07965 12.1963 9.05287C13.3755 9.02995 14.3844 8.99073 14.4377 8.96873C14.491 8.94673 14.5585 8.88011 14.594 8.81853C14.6296 8.75695 14.654 8.34292 14.6468 7.89308C14.6415 7.45015 14.6293 7.07947 14.6162 7.07194C14.6032 7.0644 13.7927 7.07152 12.8122 7.09188C11.8342 7.10784 11.0291 7.13569 11.019 7.15328ZM7.0343 2.10803C7.09775 2.1388 7.17315 2.22925 7.20432 2.3059C7.24889 2.4196 7.21114 2.58547 7.00028 3.23202C6.85947 3.66682 6.72085 4.06769 6.68783 4.12487C6.65736 4.17766 6.56995 4.23862 6.49416 4.25937C6.41147 4.28201 6.29544 4.26194 6.21277 4.21421C6.12322 4.16837 6.06087 4.08545 6.03986 3.99122C6.01704 3.89007 6.08456 3.61236 6.24025 3.12164C6.3651 2.72454 6.50045 2.33938 6.53674 2.26649C6.57882 2.17349 6.65245 2.1163 6.7627 2.08611C6.85227 2.06159 6.97339 2.07287 7.0343 2.10803ZM5.57436 2.14485C5.64398 2.18504 5.727 2.2623 5.76216 2.31192C5.79478 2.36594 5.79801 2.49097 5.77079 2.59841C5.74175 2.69894 5.61763 3.08473 5.49932 3.45042C5.30517 4.04795 5.2707 4.12775 5.1423 4.22957C5.06178 4.28864 4.949 4.32323 4.88482 4.30377C4.82499 4.28682 4.72927 4.23156 4.66728 4.17817C4.60963 4.1273 4.56868 4.02741 4.57305 3.95956C4.57561 3.88479 4.69429 3.47827 4.83437 3.05478C4.97264 2.62438 5.09784 2.25681 5.10619 2.2323C5.112 2.2122 5.19614 2.16694 5.28644 2.1311C5.39137 2.09003 5.48734 2.09461 5.57436 2.14485ZM8.11958 7.92492C8.21022 7.98898 8.30846 8.11021 8.34398 8.18936C8.37696 8.27291 8.40194 8.4105 8.40047 8.50348C8.40334 8.59898 7.97649 10.1823 7.45601 12.0283C6.93553 13.8743 6.48365 15.4608 6.44846 15.5519C6.40999 15.6587 6.32148 15.7719 6.21449 15.8567C6.12381 15.9334 5.97439 16.0113 5.89424 16.0296C5.80721 16.0497 5.05657 16.0738 4.21854 16.0884C2.73939 16.1083 2.69007 16.1033 2.44824 15.9695C2.21764 15.8364 2.19045 15.8031 2.13684 15.5845C2.07526 15.3495 2.09159 15.271 3.06795 11.8114C3.61057 9.86681 4.08349 8.23381 4.11397 8.18103C4.14698 8.12385 4.22895 8.04215 4.30185 7.99627C4.37729 7.94599 4.50459 7.89632 4.59162 7.87619C4.67431 7.85355 5.43184 7.8276 6.26987 7.81293C7.11043 7.79387 7.83278 7.78866 7.87521 7.79556C7.92017 7.79806 8.02894 7.86086 8.11958 7.92492ZM4.75461 8.63887C4.74445 8.65647 4.32015 10.1651 3.80548 11.9909C3.2585 13.9331 2.89226 15.311 2.92526 15.3242C2.95209 15.3279 3.60191 15.3277 4.36741 15.3181C5.55973 15.3027 5.75736 15.282 5.78313 15.1971C5.79801 15.1412 6.22485 13.6282 6.73734 11.8363C7.24802 10.0374 7.652 8.56399 7.6277 8.55583C7.6103 8.54578 6.9554 8.55475 6.18046 8.57065C5.40299 8.59096 4.76041 8.61877 4.75461 8.63887Z" fill="#0065B1"/>
<path fill-rule="evenodd" clip-rule="evenodd" d="M24.9552 0.789698C25.1231 0.880753 25.2122 0.967432 25.284 1.11443C25.3424 1.22436 25.3985 1.36822 25.4123 1.43481C25.4235 1.50581 25.444 2.27418 25.4528 3.15313C25.4616 4.24317 25.4448 4.78475 25.3915 4.87712C25.3432 4.96069 25.2601 5.02417 25.1662 5.04618C25.0792 5.06631 24.8641 5.07704 24.6817 5.07144C24.5012 5.07274 24.3311 5.08598 24.3053 5.10043C24.2796 5.11489 24.2607 5.33856 24.2646 5.59301C24.275 5.95678 24.25 6.10066 24.1513 6.30173C24.0602 6.4896 23.9819 6.58512 23.8404 6.6794C23.7367 6.74854 23.5648 6.82523 23.4596 6.84662C23.3563 6.87492 21.8169 6.91867 20.0458 6.95179C18.2704 6.98241 16.7811 7.01986 16.7354 7.02867C16.6647 7.04062 16.6509 7.18513 16.6594 7.75308C16.6615 8.14135 16.6574 8.59057 16.6498 8.7445C16.6396 8.90282 16.5992 9.14346 16.5611 9.27981C16.5248 9.42306 16.4138 9.67566 16.3173 9.8428C16.2081 10.0319 16.0456 10.2431 15.8875 10.3864C15.7482 10.5171 15.5204 10.6905 15.3822 10.7691C15.2459 10.8546 14.955 10.9564 14.7396 11.008C14.481 11.064 13.6096 11.1063 12.1798 11.1312C10.9849 11.151 9.91047 11.1934 9.78898 11.2229C9.66931 11.2594 9.45787 11.3543 9.32404 11.4354C9.14995 11.546 9.02699 11.6686 8.88443 11.8853C8.70449 12.1568 8.63699 12.3642 8.10525 14.2799C7.71834 15.6634 7.473 16.4602 7.38158 16.6185C7.27492 16.8032 7.1759 16.9044 6.9659 17.0471C6.81067 17.1451 6.58546 17.2438 6.46216 17.2665C6.3414 17.2847 5.28144 17.312 4.1098 17.3218C2.93561 17.3359 1.88835 17.3412 1.78283 17.333C1.66353 17.3287 1.48731 17.2621 1.33503 17.1742C1.19145 17.0913 1.02903 16.9506 0.948197 16.8394C0.873523 16.7377 0.778924 16.5599 0.73689 16.4418C0.699207 16.3262 0.664809 16.1245 0.664117 15.9951C0.666692 15.85 1.095 14.244 1.80531 11.7276C2.43105 9.50837 2.95154 7.59201 2.96572 7.47703C2.97808 7.35515 2.95092 7.18112 2.91432 7.08375C2.87083 6.98826 2.79943 6.87079 2.74613 6.82243C2.69538 6.76967 2.49235 6.62899 2.2904 6.50653C2.01521 6.33006 1.88687 6.22077 1.75492 6.0273C1.65995 5.89036 1.55013 5.66861 1.51318 5.5417C1.47876 5.4104 1.44122 4.73188 1.43198 4.0345C1.41838 3.33461 1.42907 2.64288 1.45667 2.4946C1.49045 2.28538 1.55104 2.15029 1.72154 1.88511C1.89386 1.62685 2.00304 1.50808 2.1822 1.38866C2.31603 1.30758 2.55068 1.2026 2.70662 1.1636C2.87634 1.12084 7.21807 1.006 13.8556 0.873607C24.494 0.664163 24.7264 0.663474 24.9508 0.787186L24.9552 0.789698ZM14.2441 1.63748C10.9819 1.70115 7.14607 1.77377 5.70935 1.80052C4.27262 1.82728 2.99943 1.87222 2.87795 1.90178C2.75646 1.93134 2.59761 2.01557 2.5189 2.08155C2.44455 2.15005 2.33681 2.31658 2.27694 2.44036C2.19022 2.63075 2.17385 2.85002 2.18379 3.67682C2.18869 4.37169 2.21761 4.69336 2.27236 4.7191C2.31152 4.74171 6.09915 4.6823 10.6806 4.59442C16.4394 4.4767 19.0678 4.44587 19.1773 4.49736C19.3136 4.55261 19.3469 4.59533 19.3687 4.74862C19.3802 4.84914 19.3798 4.96034 19.3577 4.98862C19.3425 5.01501 19.2801 5.07283 19.2253 5.11745C19.1619 5.15705 18.6154 5.19928 17.7886 5.21458C17.0543 5.23047 14.872 5.2725 12.9359 5.31007C10.9999 5.34763 7.82324 5.41379 5.87594 5.45074C3.01119 5.50928 2.34359 5.54023 2.39108 5.6087C2.41935 5.66021 2.62854 5.81032 2.84971 5.94974C3.15535 6.14379 3.29239 6.2581 3.41455 6.42833C3.49901 6.55334 3.61499 6.78451 3.65919 6.93906C3.71028 7.09171 3.73669 7.34741 3.72903 7.50134C3.71449 7.65715 3.19253 9.59613 2.57115 11.8179C1.94541 14.0371 1.43145 15.922 1.42562 16.0125C1.42234 16.0986 1.45676 16.2299 1.5104 16.3078C1.5597 16.3831 1.65505 16.4792 1.72031 16.5169C1.80297 16.5646 2.61634 16.5827 4.0886 16.5647C5.32842 16.5474 6.3978 16.5138 6.46744 16.4837C6.53707 16.4535 6.63391 16.3862 6.68251 16.3322C6.73112 16.2781 7.02473 15.3275 7.3728 14.0916C7.88239 12.2745 8.00397 11.8931 8.16904 11.6072C8.30363 11.3741 8.44837 11.1937 8.61594 11.0442C8.75268 10.9178 8.94708 10.772 9.04754 10.7186C9.14801 10.6652 9.37503 10.5734 9.55237 10.5174C9.79426 10.4401 10.3988 10.4079 12.1292 10.3748C13.3741 10.3487 14.503 10.3025 14.6451 10.2673C14.7898 10.2277 15.0201 10.1202 15.1616 10.0259C15.381 9.87697 15.4492 9.79905 15.6473 9.45596C15.8301 9.13926 15.8813 9.01045 15.8944 8.80689C15.9057 8.66678 15.9127 8.17233 15.907 7.69987C15.9065 7.00752 15.9232 6.81778 16.007 6.67262C16.0629 6.57586 16.1953 6.44703 16.3102 6.37851C16.4861 6.2748 16.8393 6.25587 19.819 6.19918C21.6445 6.16227 23.1944 6.13046 23.2694 6.12101C23.3488 6.11408 23.433 6.06883 23.4609 6.02044C23.4888 5.97206 23.5121 5.7509 23.5154 5.52409C23.5162 5.30168 23.501 5.11698 23.4767 5.10882C23.4543 5.10756 22.8806 5.11651 22.205 5.13113C21.5251 5.14325 20.8883 5.15095 20.7871 5.14532C20.6672 5.13865 20.574 5.10244 20.5076 5.0367C20.4594 4.97954 20.4115 4.88154 20.4047 4.81306C20.4021 4.7471 20.4268 4.64405 20.4624 4.58247C20.4979 4.52089 20.5948 4.45364 20.6774 4.431C20.7645 4.41088 21.6783 4.37546 22.7107 4.35572C23.7431 4.33597 24.613 4.31627 24.6406 4.30873C24.6725 4.30369 24.6926 3.67604 24.6896 2.91772C24.6826 1.90495 24.6598 1.52234 24.604 1.47837C24.5587 1.44634 23.539 1.44409 22.3459 1.47079C21.146 1.49937 17.502 1.5713 14.2441 1.63748ZM10.0263 2.14056C10.0789 2.20023 10.1173 2.30452 10.1173 2.37488C10.1147 2.44965 10.0094 2.82287 9.88279 3.21306C9.75432 3.59634 9.62223 3.96579 9.5816 4.03617C9.54351 4.10215 9.44413 4.1738 9.35456 4.19832C9.27187 4.22096 9.15257 4.2166 9.09166 4.18143C9.03075 4.14626 8.95969 4.05832 8.92853 3.98168C8.88831 3.87048 8.92425 3.6977 9.15361 3.00906C9.30276 2.54975 9.46714 2.13442 9.51067 2.08918C9.55673 2.03953 9.67133 2.01186 9.76561 2.01937C9.87983 2.03254 9.96323 2.06895 10.0263 2.14056ZM8.51345 2.08818C8.5595 2.1089 8.61677 2.20061 8.64467 2.29296C8.69032 2.42488 8.65076 2.58385 8.42321 3.2794C8.19313 3.97936 8.13253 4.11445 8.03134 4.17919C7.96969 4.2257 7.86198 4.25148 7.79018 4.24522C7.72527 4.23707 7.63861 4.21636 7.60381 4.19626C7.569 4.17617 7.51608 4.08696 7.48999 4.00153C7.45123 3.86771 7.48971 3.69053 7.71145 3.01508C7.93972 2.30822 8.00031 2.17313 8.09715 2.10588C8.16316 2.06188 8.26652 2.03358 8.32707 2.03922C8.38763 2.04486 8.47429 2.06557 8.51345 2.08818ZM14.9816 6.40901C15.0624 6.44983 15.1777 6.55158 15.2313 6.62947C15.2919 6.70548 15.3575 6.84305 15.3723 6.92787C15.3915 7.01519 15.4041 7.48576 15.4091 7.96953C15.4117 8.76869 15.4001 8.87927 15.276 9.12433C15.19 9.30341 15.0794 9.4448 14.9699 9.53404C14.8792 9.61071 14.716 9.69243 14.6126 9.72073C14.5118 9.74463 13.4218 9.78386 12.195 9.80868C10.9708 9.8291 9.87674 9.82499 9.76832 9.79172C9.65736 9.76284 9.5 9.68372 9.41626 9.61778C9.33686 9.55434 9.21686 9.42055 9.15343 9.31941C9.09181 9.22519 9.01245 9.02102 8.97949 8.8671C8.94291 8.69937 8.94804 8.47947 8.99341 8.3004C9.03843 8.0918 9.14873 7.85052 9.34173 7.51623C9.61092 7.04998 9.63305 7.0217 9.96817 6.79292C10.1593 6.66282 10.4531 6.51573 10.621 6.46606C10.8302 6.40506 11.5279 6.36216 12.7659 6.33796C13.7759 6.31697 14.6563 6.3092 14.7212 6.31735C14.7861 6.3255 14.9076 6.36631 14.9816 6.40901ZM11.019 7.15328C11.0132 7.17339 11.0646 7.28521 11.1317 7.40016C11.2154 7.53648 11.3274 7.65393 11.4536 7.72678C11.5972 7.80968 11.7531 7.84105 12.0323 7.84977C12.251 7.85286 12.47 7.88547 12.5309 7.92064C12.5918 7.95581 12.656 8.04563 12.6759 8.12165C12.7013 8.2184 12.6799 8.30573 12.6026 8.41947C12.5101 8.5596 12.4637 8.57971 12.1667 8.60178C11.9828 8.61879 11.713 8.60378 11.5727 8.57555C11.428 8.5448 11.2032 8.46192 11.0727 8.38656C10.9422 8.31121 10.7703 8.1768 10.6924 8.09075C10.6144 8.00469 10.5053 7.842 10.447 7.73207C10.3904 7.62905 10.3226 7.5254 10.3009 7.51284C10.2748 7.49777 10.2233 7.52668 10.1772 7.57632C10.1337 7.62157 10.0361 7.7705 9.95991 7.90245C9.88373 8.03441 9.78793 8.26061 9.75417 8.39947C9.71787 8.54273 9.71311 8.72178 9.73304 8.7978C9.75913 8.88324 9.83453 8.97369 9.91973 9.01702C10.0155 9.07228 10.6783 9.07965 12.1963 9.05287C13.3755 9.02995 14.3844 8.99073 14.4377 8.96873C14.491 8.94673 14.5585 8.88011 14.594 8.81853C14.6296 8.75695 14.654 8.34292 14.6468 7.89308C14.6415 7.45015 14.6293 7.07947 14.6162 7.07194C14.6032 7.0644 13.7927 7.07152 12.8122 7.09188C11.8342 7.10784 11.0291 7.13569 11.019 7.15328ZM7.0343 2.10803C7.09775 2.1388 7.17315 2.22925 7.20432 2.3059C7.24889 2.4196 7.21114 2.58547 7.00028 3.23202C6.85947 3.66682 6.72085 4.06769 6.68783 4.12487C6.65736 4.17766 6.56995 4.23862 6.49416 4.25937C6.41147 4.28201 6.29544 4.26194 6.21277 4.21421C6.12322 4.16837 6.06087 4.08545 6.03986 3.99122C6.01704 3.89007 6.08456 3.61236 6.24025 3.12164C6.3651 2.72454 6.50045 2.33938 6.53674 2.26649C6.57882 2.17349 6.65245 2.1163 6.7627 2.08611C6.85227 2.06159 6.97339 2.07287 7.0343 2.10803ZM5.57436 2.14485C5.64398 2.18504 5.727 2.2623 5.76216 2.31192C5.79478 2.36594 5.79801 2.49097 5.77079 2.59841C5.74175 2.69894 5.61763 3.08473 5.49932 3.45042C5.30517 4.04795 5.2707 4.12775 5.1423 4.22957C5.06178 4.28864 4.949 4.32323 4.88482 4.30377C4.82499 4.28682 4.72927 4.23156 4.66728 4.17817C4.60963 4.1273 4.56868 4.02741 4.57305 3.95956C4.57561 3.88479 4.69429 3.47827 4.83437 3.05478C4.97264 2.62438 5.09784 2.25681 5.10619 2.2323C5.112 2.2122 5.19614 2.16694 5.28644 2.1311C5.39137 2.09003 5.48734 2.09461 5.57436 2.14485ZM8.11958 7.92492C8.21022 7.98898 8.30846 8.11021 8.34398 8.18936C8.37696 8.27291 8.40194 8.4105 8.40047 8.50348C8.40334 8.59898 7.97649 10.1823 7.45601 12.0283C6.93553 13.8743 6.48365 15.4608 6.44846 15.5519C6.40999 15.6587 6.32148 15.7719 6.21449 15.8567C6.12381 15.9334 5.97439 16.0113 5.89424 16.0296C5.80721 16.0497 5.05657 16.0738 4.21854 16.0884C2.73939 16.1083 2.69007 16.1033 2.44824 15.9695C2.21764 15.8364 2.19045 15.8031 2.13684 15.5845C2.07526 15.3495 2.09159 15.271 3.06795 11.8114C3.61057 9.86681 4.08349 8.23381 4.11397 8.18103C4.14698 8.12385 4.22895 8.04215 4.30185 7.99627C4.37729 7.94599 4.50459 7.89632 4.59162 7.87619C4.67431 7.85355 5.43184 7.8276 6.26987 7.81293C7.11043 7.79387 7.83278 7.78866 7.87521 7.79556C7.92017 7.79806 8.02894 7.86086 8.11958 7.92492ZM4.75461 8.63887C4.74445 8.65647 4.32015 10.1651 3.80548 11.9909C3.2585 13.9331 2.89226 15.311 2.92526 15.3242C2.95209 15.3279 3.60191 15.3277 4.36741 15.3181C5.55973 15.3027 5.75736 15.282 5.78313 15.1971C5.79801 15.1412 6.22485 13.6282 6.73734 11.8363C7.24802 10.0374 7.652 8.56399 7.6277 8.55583C7.6103 8.54578 6.9554 8.55475 6.18046 8.57065C5.40299 8.59096 4.76041 8.61877 4.75461 8.63887Z" stroke="#0065B1" stroke-width="0.4" mask="url(#path-1-outside-1_46_1336)"/>
</svg>
