<svg width="22" height="22" viewBox="0 0 22 22" fill="none" xmlns="http://www.w3.org/2000/svg">
<g clip-path="url(#clip0_46_1246)">
<path d="M13.75 0H12.4167C12.1405 0 11.9167 0.223858 11.9167 0.5V7.75C11.9167 8.02614 11.6928 8.25 11.4167 8.25H5.16994C5.03733 8.25 4.91015 8.19732 4.81639 8.10355L3.77758 7.06475C3.28275 6.56699 2.69405 6.17239 2.04561 5.90379C1.551 5.69891 1.02913 5.57046 0.497876 5.52195C0.223447 5.49689 0 5.72297 0 5.99854L0 6.83175C0 7.10851 0.225946 7.32896 0.499964 7.36781C0.789134 7.4088 1.07266 7.4861 1.34373 7.59835C1.76969 7.77475 2.15639 8.03394 2.48142 8.36092L3.52022 9.39972C3.61399 9.49349 3.66667 9.62067 3.66667 9.75327V11.9167C3.66667 12.646 3.9564 13.3455 4.47212 13.8612C4.98785 14.3769 5.68732 14.6667 6.41667 14.6667H9.8086C10.2325 14.6667 10.4641 15.1611 10.1927 15.4868L8.69197 17.2873C8.5663 17.4381 8.36433 17.4974 8.17087 17.4643C5.06366 16.9321 4.40602 21.8438 7.79167 22C8.17542 21.9974 8.55241 21.8988 8.88823 21.713C9.22404 21.5273 9.50797 21.2604 9.71408 20.9367C9.92019 20.613 10.0419 20.2428 10.0682 19.8599C10.0872 19.5822 10.0555 19.3043 9.97565 19.0395C9.92004 18.8551 9.94273 18.6507 10.066 18.5028L12.4492 15.6428C12.6491 15.4029 13.0176 15.4029 13.2175 15.6428L15.6007 18.5028C15.7239 18.6507 15.7466 18.8551 15.691 19.0395C15.6111 19.3043 15.5795 19.5822 15.5985 19.8599C15.6247 20.2428 15.7465 20.613 15.9526 20.9367C16.1587 21.2604 16.4426 21.5273 16.7784 21.713C17.1143 21.8988 17.4912 21.9974 17.875 22C21.2615 21.8429 20.6022 16.9321 17.4958 17.4643C17.3024 17.4974 17.1004 17.4381 16.9747 17.2873L15.474 15.4868C15.2026 15.1611 15.4341 14.6667 15.8581 14.6667H19.25C19.9793 14.6667 20.6788 14.3769 21.1945 13.8612C21.7103 13.3455 22 12.646 22 11.9167V9.16667C22 0.104501 13.8325 0 13.75 0ZM13.75 2.34185C13.75 2.0624 13.9794 1.83524 14.2576 1.86181C15.7599 2.00525 17.1714 2.66881 18.243 3.74639C19.3152 4.82465 19.9711 6.24094 20.1055 7.74505C20.1303 8.02229 19.9036 8.25 19.6252 8.25H14.25C13.9739 8.25 13.75 8.02614 13.75 7.75V2.34185ZM20.1667 11.9167C20.1667 12.1598 20.0701 12.3929 19.8982 12.5648C19.7263 12.7368 19.4931 12.8333 19.25 12.8333H6.41667C6.17355 12.8333 5.94039 12.7368 5.76849 12.5648C5.59658 12.3929 5.5 12.1598 5.5 11.9167V10.5833C5.5 10.3072 5.72386 10.0833 6 10.0833H19.6667C19.9428 10.0833 20.1667 10.3072 20.1667 10.5833V11.9167Z" fill="#0065B1"/>
</g>
<defs>
<clipPath id="clip0_46_1246">
<rect width="22" height="22" fill="white"/>
</clipPath>
</defs>
</svg>
