<svg width="22" height="20" viewBox="0 0 22 20" fill="none" xmlns="http://www.w3.org/2000/svg">
<path d="M18.86 6.09C18.86 6.51 18.83 6.92 18.78 7.31C18.32 7.11 17.82 7 17.29 7C16.07 7 14.99 7.58999 14.32 8.48999C13.64 7.58999 12.56 7 11.34 7C9.29 7 7.63 8.66999 7.63 10.74C7.63 13.42 9.05 15.47 10.63 16.86C10.58 16.89 10.53 16.9 10.48 16.92C10.18 17.03 9.68 17.03 9.38 16.92C6.79 16.03 1 12.35 1 6.09C1 3.33 3.21999 1.10001 5.95999 1.10001C7.58999 1.10001 9.02999 1.88 9.92999 3.09C10.84 1.88 12.28 1.10001 13.9 1.10001C16.64 1.10001 18.86 3.33 18.86 6.09Z" stroke="#0065B1" stroke-width="1.5" stroke-linecap="round" stroke-linejoin="round"/>
<path d="M20.9999 10.74C20.9999 15.42 16.6699 18.18 14.7299 18.84C14.4999 18.92 14.1299 18.92 13.8999 18.84C13.0699 18.56 11.7999 17.89 10.6299 16.86C9.04988 15.47 7.62988 13.42 7.62988 10.74C7.62988 8.66999 9.28987 7 11.3399 7C12.5599 7 13.6399 7.58999 14.3199 8.48999C14.9899 7.58999 16.0699 7 17.2899 7C17.8199 7 18.3199 7.11 18.7799 7.31C20.0899 7.89 20.9999 9.19999 20.9999 10.74Z" stroke="#0065B1" stroke-width="1.5" stroke-linecap="round" stroke-linejoin="round"/>
</svg>
