<svg width="22" height="22" viewBox="0 0 22 22" fill="none" xmlns="http://www.w3.org/2000/svg">
<g clip-path="url(#clip0_46_1274)">
<path d="M21.944 9.76617L19.1289 2.12575C18.7412 1.07067 17.6311 0.493167 16.5403 0.782834L11.9175 2.01575V0.916668C11.912 -0.282332 10.0897 -0.281416 10.0842 0.916668V2.50433L5.26802 3.78858C4.11761 4.09567 3.18444 4.94633 2.77194 6.06375L0.0576893 13.4328C0.020106 13.5346 0.000855951 14.0259 0.000855951 14.0259C-0.0706441 17.6229 4.35411 19.7707 6.96569 17.1994C7.78244 16.4239 8.25086 15.3331 8.25086 14.2074C8.25086 14.2074 8.23161 13.5364 8.19586 13.4356L5.38169 5.698C5.49536 5.64025 5.61544 5.5935 5.74102 5.5605L10.0842 4.40183V20.1667H4.58419C3.38519 20.1722 3.38611 21.9945 4.58419 22H17.4175C18.6165 21.9945 18.6156 20.1722 17.4175 20.1667H11.9175V3.91233L16.4055 2.71517L13.8077 9.76525C13.7701 9.867 13.7509 10.3583 13.7509 10.3583C13.7509 12.6555 15.4659 14.5448 17.6559 14.6593C18.8008 14.7198 19.887 14.3193 20.7157 13.5328C21.5324 12.7573 22.0009 11.6664 22.0009 10.5408C22.0009 10.5408 21.9816 9.867 21.944 9.76525V9.76617ZM6.02519 12.8333H2.23202L4.14144 7.65142L6.02519 12.8333ZM17.8759 4.02692L19.7697 9.16667H15.982L17.8759 4.02692Z" fill="#0065B1"/>
</g>
<defs>
<clipPath id="clip0_46_1274">
<rect width="22" height="22" fill="white"/>
</clipPath>
</defs>
</svg>
