<svg width="24" height="24" viewBox="0 0 24 24" fill="none" xmlns="http://www.w3.org/2000/svg">
<path d="M8.97021 22H14.9702C19.9702 22 21.9702 20 21.9702 15V9C21.9702 4 19.9702 2 14.9702 2H8.97021C3.97021 2 1.97021 4 1.97021 9V15C1.97021 20 3.97021 22 8.97021 22Z" stroke="#0065B1" stroke-width="1.5" stroke-linecap="round" stroke-linejoin="round"/>
<path d="M1.97021 12.7L7.97021 12.68C8.72021 12.68 9.56021 13.25 9.84021 13.95L10.9802 16.83C11.2402 17.48 11.6502 17.48 11.9102 16.83L14.2002 11.02C14.4202 10.46 14.8302 10.44 15.1102 10.97L16.1502 12.94C16.4602 13.53 17.2602 14.01 17.9202 14.01H21.9802" stroke="#0065B1" stroke-width="1.5" stroke-linecap="round" stroke-linejoin="round"/>
</svg>
