<svg width="22" height="22" viewBox="0 0 22 22" fill="none" xmlns="http://www.w3.org/2000/svg">
<g clip-path="url(#clip0_46_1279)">
<path d="M18.9264 15.4333H19.1869L19.0562 15.6586C17.8221 17.7851 15.7997 19.3395 13.4273 19.9851L12.976 20.1079L13.2717 19.7455C14.3176 18.4637 15.1807 17.0429 15.8361 15.5239L15.8752 15.4333H15.9738H18.9264ZM14.6887 8.1H14.7985L14.8317 8.20472C15.1179 9.10876 15.2674 10.0505 15.275 10.9988L15.275 11.0012C15.2674 11.9495 15.1179 12.8912 14.8317 13.7953L14.7985 13.9H14.6887H7.31134H7.20149L7.16834 13.7953C6.88208 12.8912 6.73266 11.9495 6.72499 11.0012L6.72501 10.9988C6.73266 10.0505 6.88208 9.10876 7.16834 8.20472L7.20149 8.1H7.31134H14.6887ZM8.0465 6.56666H7.80247L7.91267 6.34893C8.69672 4.79971 9.69975 3.37145 10.8909 2.1081L11 1.9923L11.1092 2.10813C12.2998 3.37182 13.3028 4.79999 14.0873 6.34889L14.1976 6.56666H13.9535H8.0465ZM7.91269 15.6511L7.80239 15.4333H8.0465H13.9535H14.1975L14.0873 15.6511C13.3033 17.2003 12.3003 18.6285 11.1091 19.8919L11 20.0077L10.8908 19.8919C9.70017 18.6282 8.69722 17.2 7.91269 15.6511ZM8.73281 19.7454L9.02892 20.1077L8.57738 19.9851C6.20329 19.3406 4.17906 17.7861 2.94387 15.6586L2.81305 15.4333H3.07359H6.02617H6.12474L6.16385 15.5238C6.82071 17.0431 7.68528 18.4638 8.73281 19.7454ZM2.25592 13.9H2.14588L2.11284 13.795C1.54018 11.9757 1.54018 10.0243 2.11284 8.20496L2.14588 8.1H2.25592H5.40834H5.60322L5.55334 8.28839C5.31902 9.17341 5.1975 10.0845 5.19167 11C5.1975 11.9155 5.31902 12.8266 5.55334 13.7116L5.60322 13.9H5.40834H2.25592ZM3.07359 6.56666H2.81305L2.94387 6.34135C4.17906 4.21393 6.20329 2.65936 8.57738 2.0149L9.02892 1.89233L8.73281 2.2546C7.68528 3.53615 6.82071 4.95691 6.16385 6.47619L6.12474 6.56666H6.02617H3.07359ZM13.2717 2.2545L12.976 1.89213L13.4273 2.01493C15.7997 2.66047 17.8221 4.21492 19.0562 6.34137L19.1869 6.56666H18.9264H15.9738H15.8752L15.8361 6.47609C15.1807 4.95707 14.3176 3.53633 13.2717 2.2545ZM16.4467 8.28839L16.3968 8.1H16.5917H19.5378H19.7423H19.7441V8.24942L19.8853 8.20496C20.458 10.0243 20.458 11.9757 19.8853 13.795L19.8523 13.9H19.7423H16.5917H16.3968L16.4467 13.7116C16.681 12.8266 16.8025 11.9155 16.8083 11C16.8025 10.0845 16.681 9.17341 16.4467 8.28839ZM4.97207 20.0214C6.75632 21.2136 8.85403 21.85 10.9999 21.85C13.8766 21.8469 16.6345 20.7027 18.6686 18.6686C20.7028 16.6345 21.8469 13.8765 21.85 10.9998C21.85 8.85397 21.2136 6.75629 20.0215 4.97206C18.8292 3.18779 17.1347 1.79712 15.1521 0.975906C13.1695 0.154696 10.988 -0.0601711 8.88328 0.358479C6.77858 0.777128 4.8453 1.81049 3.3279 3.32789C1.8105 4.84529 0.777134 6.77857 0.358485 8.88327C-0.060165 10.988 0.154701 13.1695 0.975912 15.1521C1.79712 17.1347 3.18779 18.8292 4.97207 20.0214Z" fill="#0065B1" stroke="#ECF0FD" stroke-width="0.3"/>
</g>
<defs>
<clipPath id="clip0_46_1279">
<rect width="22" height="22" fill="white" transform="matrix(1 0 0 -1 0 22)"/>
</clipPath>
</defs>
</svg>
