<svg width="40" height="40" viewBox="0 0 40 40" fill="none" xmlns="http://www.w3.org/2000/svg">
<g clip-path="url(#clip0_179_1194)">
<path d="M28 0H12C5.37258 0 0 5.37258 0 12V28C0 34.6274 5.37258 40 12 40H28C34.6274 40 40 34.6274 40 28V12C40 5.37258 34.6274 0 28 0Z" fill="white"/>
<path fill-rule="evenodd" clip-rule="evenodd" d="M20.7678 13.1541C21.9238 13.548 22.5274 14.7702 22.1284 15.8814C21.7192 16.9925 20.4507 17.5783 19.2947 17.1945C18.1387 16.8005 17.5351 15.5783 17.9341 14.4672C18.3433 13.346 19.6118 12.7601 20.7678 13.1541ZM23.3253 20.8207C23.6527 20.6288 24.0107 20.447 24.3892 20.4268C24.7882 20.4066 25.2997 20.6187 25.5657 20.8915C26.1284 21.4773 26.1693 22.4571 25.5452 23.0127C25.4532 23.1036 25.3304 23.1945 25.2077 23.2652C24.1028 23.8915 23.4685 24.1945 22.2 24.4672C22.3637 24.5985 22.5376 24.7601 22.6808 24.8915C23.5402 25.7096 24.4097 26.5177 25.2588 27.3359C25.8215 27.8713 25.8419 28.649 25.4327 29.2753C24.9928 29.942 24.0926 30.1137 23.3867 29.7298C23.2026 29.6288 23.0287 29.4874 22.8343 29.3056C21.9238 28.4268 21.0031 27.5581 20.0722 26.6995C19.9494 26.8106 19.7448 27.0228 19.5914 27.1743C18.7832 27.9622 17.9955 28.7601 17.1771 29.5379C16.5121 30.1945 15.5096 30.1339 14.8651 29.4672C14.3843 28.9723 14.3229 28.1743 14.7526 27.6187C14.9981 27.3258 15.2743 27.0632 15.5505 26.8005C16.1745 26.1743 17.2282 25.2046 17.8011 24.5682C16.7679 24.245 15.5096 23.8612 14.6503 23.2551C13.9137 22.7298 13.8114 21.8409 14.3025 21.1339C14.4866 20.8611 14.7526 20.6692 15.172 20.5682C15.6426 20.4571 16.1029 20.5581 16.5224 20.7803C17.7602 21.4571 18.8344 21.8005 20.4609 21.6894C21.4635 21.5682 22.4558 21.3157 23.3253 20.8207ZM21.8113 10.2955C24.6041 11.245 26.067 14.1945 25.0849 16.8813C24.1028 19.5682 21.044 20.9824 18.2512 20.043C15.4584 19.0935 13.9956 16.144 14.9776 13.4571C15.9597 10.7601 19.0185 9.34599 21.8113 10.2955Z" fill="#0065B1"/>
</g>
<defs>
<clipPath id="clip0_179_1194">
<rect width="40" height="40" fill="white"/>
</clipPath>
</defs>
</svg>
