<svg width="40" height="40" viewBox="0 0 40 40" fill="none" xmlns="http://www.w3.org/2000/svg">
<g clip-path="url(#clip0_260_2201)">
<path d="M28 0H12C5.37258 0 0 5.37258 0 12V28C0 34.6274 5.37258 40 12 40H28C34.6274 40 40 34.6274 40 28V12C40 5.37258 34.6274 0 28 0Z" fill="#848E98"/>
<path fill-rule="evenodd" clip-rule="evenodd" d="M26.8343 28.2903L30 12.6015C30 11.5569 28.5399 12.1902 28.5466 12.1902L10.7802 19.0455C10.7802 19.0455 9.93738 19.3262 10.0037 19.8485C10.0701 20.3708 10.7537 20.6124 10.7537 20.6124L15.2201 22.0945L15.2277 22.0981C15.2269 22.0956 15.2266 22.0944 15.2266 22.0944L25.9581 15.3893C25.9581 15.3893 26.5753 15.0171 26.5554 15.3893C26.5554 15.3893 26.6682 15.4545 26.3363 15.7614C26.0045 16.0683 17.9078 23.2239 17.9078 23.2239L17.8906 23.3664L25.1751 28.8584C26.3897 29.3807 26.8343 28.2903 26.8343 28.2903Z" fill="white"/>
</g>
<defs>
<clipPath id="clip0_260_2201">
<rect width="40" height="40" fill="white"/>
</clipPath>
</defs>
</svg>
