<svg width="40" height="40" viewBox="0 0 40 40" fill="none" xmlns="http://www.w3.org/2000/svg">
<g clip-path="url(#clip0_179_1191)">
<path d="M0 19.2C0 12.4794 0 9.11905 1.30792 6.55211C2.4584 4.29417 4.29417 2.4584 6.55211 1.30792C9.11905 0 12.4794 0 19.2 0H20.8C27.5206 0 30.8809 0 33.4479 1.30792C35.7058 2.4584 37.5416 4.29417 38.6921 6.55211C40 9.11905 40 12.4794 40 19.2V20.8C40 27.5206 40 30.8809 38.6921 33.4479C37.5416 35.7058 35.7058 37.5416 33.4479 38.6921C30.8809 40 27.5206 40 20.8 40H19.2C12.4794 40 9.11905 40 6.55211 38.6921C4.29417 37.5416 2.4584 35.7058 1.30792 33.4479C0 30.8809 0 27.5206 0 20.8V19.2Z" fill="white"/>
<path fill-rule="evenodd" clip-rule="evenodd" d="M29.9818 14.9031C30.1449 14.3942 29.9818 14.0241 29.2595 14.0241H26.8596C26.2538 14.0241 25.9742 14.348 25.8111 14.6949C25.8111 14.6949 24.5763 17.6558 22.8521 19.5757C22.2929 20.1309 22.0366 20.3159 21.7337 20.3159C21.5706 20.3159 21.3609 20.1309 21.3609 19.622V14.88C21.3609 14.2786 21.1745 14.001 20.6619 14.001H16.8874C16.5146 14.001 16.2816 14.2786 16.2816 14.5561C16.2816 15.1344 17.1437 15.2732 17.2369 16.8924V20.4085C17.2369 21.1718 17.0971 21.3106 16.7942 21.3106C15.9787 21.3106 13.9982 18.3266 12.8099 14.9263C12.5769 14.2554 12.3439 14.001 11.7381 14.001H9.315C8.61601 14.001 8.49951 14.3248 8.49951 14.6718C8.49951 15.2964 9.315 18.4423 12.2973 22.606C14.2778 25.4512 17.0971 26.9779 19.6367 26.9779C21.1745 26.9779 21.3609 26.6309 21.3609 26.0526V23.9013C21.3609 23.2074 21.5007 23.0917 21.99 23.0917C22.3395 23.0917 22.9686 23.2768 24.3899 24.6416C26.0208 26.2608 26.3004 27.001 27.2091 27.001H29.609C30.308 27.001 30.6342 26.654 30.4478 25.9832C30.2381 25.3124 29.4459 24.3408 28.4207 23.1843C27.8615 22.5366 27.0227 21.8195 26.7664 21.4725C26.4169 21.0099 26.5101 20.8248 26.7664 20.4085C26.7431 20.4085 29.6789 16.291 29.9818 14.9031Z" fill="#0065B1"/>
</g>
<defs>
<clipPath id="clip0_179_1191">
<rect width="40" height="40" fill="white"/>
</clipPath>
</defs>
</svg>
