<svg width="11" height="12" viewBox="0 0 11 12" fill="none" xmlns="http://www.w3.org/2000/svg">
<path d="M9.90281 2.19754C10.3817 2.56864 10.8342 3.36656 10.8983 3.97607L10.8989 3.98145C10.9049 4.0371 11 4.94355 11 5.99362C11 7.05261 10.9055 7.94511 10.899 8.00528L10.8983 8.01193C10.8336 8.62339 10.3911 9.42411 9.89802 9.79343L9.89732 9.79395C9.88539 9.80284 9.15495 10.3467 8.25 10.8905C7.38637 11.4025 6.61111 11.7588 6.51185 11.8039C6.50456 11.8072 6.49759 11.8104 6.49033 11.8138C6.2251 11.938 5.86256 12 5.5 12C5.14751 12 4.78253 11.9371 4.50441 11.8112L4.49383 11.8065C4.42336 11.775 3.62135 11.4142 2.75 10.8905C1.88109 10.3684 1.17308 9.84617 1.10749 9.79753C1.10384 9.79481 1.10078 9.79251 1.09719 9.78971C0.618297 9.41861 0.165838 8.62069 0.101662 8.01118L0.101091 8.0058C0.0951425 7.95015 0 7.04368 0 5.99362C0 4.93464 0.0945265 4.04214 0.101031 3.98198L0.101741 3.97532C0.166188 3.36566 0.606282 2.56785 1.09762 2.19711C1.10092 2.19461 1.10369 2.19257 1.10703 2.19015C1.1697 2.1447 1.87902 1.63289 2.75 1.10946C3.61363 0.597553 4.38889 0.241238 4.48815 0.196131C4.49544 0.192814 4.50241 0.189557 4.50967 0.186157C4.7749 0.0620524 5.13744 0 5.5 0C5.8525 0 6.21747 0.0629196 6.49559 0.188758L6.50617 0.193519C6.57664 0.224961 7.37865 0.585802 8.25 1.10946C9.11891 1.6195 9.82692 2.14112 9.8925 2.18972C9.89615 2.19244 9.89921 2.19474 9.90281 2.19754Z" fill="#0065B1"/>
</svg>
